<?xml version="1.0" standalone="no"?>
<!DOCTYPE svg PUBLIC "-//W3C//DTD SVG 20010904//EN"
 "http://www.w3.org/TR/2001/REC-SVG-20010904/DTD/svg10.dtd">
<svg version="1.0" xmlns="http://www.w3.org/2000/svg"
 width="1776.000000pt" height="1776.000000pt" viewBox="0 0 1776.000000 1776.000000"
 preserveAspectRatio="xMidYMid meet">

<g transform="translate(0.000000,1776.000000) scale(0.100000,-0.100000)"
fill="#d20000" stroke="none">
<path d="M960 15120 l0 -1680 1680 0 1680 0 0 1680 0 1680 -1680 0 -1680 0 0
-1680z m2880 0 l0 -1200 -1200 0 -1200 0 0 1200 0 1200 1200 0 1200 0 0 -1200z"/>
<path d="M1920 15120 l0 -720 720 0 720 0 0 720 0 720 -720 0 -720 0 0 -720z"/>
<path d="M5760 16560 l0 -240 -240 0 -240 0 0 -240 0 -240 -240 0 -240 0 0
-1445 0 -1445 240 0 240 0 0 -240 0 -240 245 0 245 0 0 245 0 245 -240 0 -240
0 2 953 3 952 233 3 232 2 0 -240 0 -240 240 0 240 0 0 -235 0 -235 -240 0
-240 0 0 -245 0 -245 245 0 245 0 2 238 3 237 233 3 232 2 0 -720 0 -720 960
0 960 0 0 -235 0 -235 -240 0 -240 0 0 -240 0 -240 -240 0 -240 0 0 -245 0
-245 240 0 240 0 0 -235 0 -235 -240 0 -240 0 0 -485 0 -485 145 0 c80 0 145
-4 145 -9 0 -4 -10 -21 -22 -37 -30 -38 -49 -72 -102 -180 -56 -115 -84 -210
-98 -327 -10 -87 -6 -307 7 -371 19 -93 53 -192 95 -276 69 -138 72 -142 108
-188 l34 -42 -151 0 -151 0 0 240 0 240 -240 0 -240 0 0 240 0 240 -240 0
-240 0 0 240 0 240 -485 0 -485 0 0 -240 0 -240 -240 0 -240 0 0 -240 0 -240
-475 0 -475 0 0 240 0 240 -240 0 -240 0 2 233 3 232 238 3 237 2 0 245 0 245
-240 0 -240 0 2 233 3 232 473 3 472 2 0 -240 0 -240 1205 0 1205 0 0 245 0
245 -720 0 -720 0 2 233 3 232 477 3 478 2 2 238 3 237 238 3 237 2 0 245 0
245 -245 0 -245 0 0 -240 0 -240 -475 0 -475 0 0 240 0 240 -245 0 -245 0 0
-720 0 -720 -235 0 -235 0 0 240 0 240 -485 0 -485 0 0 -240 0 -240 -235 0
-235 0 0 240 0 240 -245 0 -245 0 0 -240 0 -240 -475 0 -475 0 2 713 3 712
233 3 232 2 0 -240 0 -240 965 0 965 0 2 238 3 237 238 3 237 2 0 245 0 245
-240 0 -240 0 0 240 0 240 -1205 0 -1205 0 0 -480 0 -480 -240 0 -240 0 0
-240 0 -240 -240 0 -240 0 0 -245 0 -245 240 0 240 0 0 -960 0 -960 245 0 245
0 2 238 3 237 237 3 238 2 2 238 3 237 233 3 232 2 0 -955 0 -955 -475 0 -475
0 0 240 0 240 -485 0 -485 0 0 -245 0 -245 480 0 480 0 0 -235 0 -235 -240 0
-240 0 0 -480 0 -480 -240 0 -240 0 0 -965 0 -965 245 0 245 0 2 957 3 958
233 3 232 2 0 -960 0 -960 1205 0 1205 0 0 245 0 245 -240 0 -240 0 2 232 3
233 473 3 472 2 0 -240 0 -240 240 0 240 0 0 -235 0 -235 -240 0 -240 0 0
-245 0 -245 245 0 245 0 2 238 3 237 233 3 232 2 0 -240 0 -240 240 0 240 0 0
-235 0 -235 -240 0 -240 0 0 -240 0 -240 -235 0 -235 0 0 240 0 240 -245 0
-245 0 0 -965 0 -965 485 0 485 0 2 238 3 237 233 3 232 2 0 -240 0 -240 245
0 245 0 2 477 3 478 478 3 477 2 0 245 0 245 -240 0 -240 0 2 232 3 233 237 3
238 2 2 238 3 237 233 3 232 2 0 -240 0 -240 485 0 485 0 2 478 3 477 233 3
232 2 0 -480 0 -480 240 0 240 0 0 -235 0 -235 -240 0 -240 0 0 -240 0 -240
-720 0 -720 0 0 -240 0 -240 -240 0 -240 0 0 -245 0 -245 245 0 245 0 2 238 3
237 473 3 472 2 0 -235 0 -235 -240 0 -240 0 0 -245 0 -245 240 0 240 0 0
-240 0 -240 245 0 245 0 0 245 0 245 -240 0 -240 0 2 232 3 233 237 3 238 2 2
478 3 477 233 3 232 2 0 -240 0 -240 240 0 240 0 0 -235 0 -235 -240 0 -240 0
0 -245 0 -245 720 0 720 0 0 -240 0 -240 965 0 965 0 2 238 3 237 233 3 232 2
0 -240 0 -240 245 0 245 0 2 238 3 237 713 3 712 2 0 -240 0 -240 245 0 245 0
0 245 0 245 -240 0 -240 0 2 473 3 472 478 3 477 2 0 485 0 485 -245 0 -245 0
0 -240 0 -240 -475 0 -475 0 2 233 3 232 237 3 238 2 2 238 3 237 237 3 238 2
2 238 3 237 238 3 237 2 0 245 0 245 -245 0 -245 0 0 -240 0 -240 -235 0 -235
0 0 240 0 240 -240 0 -240 0 2 233 3 232 237 3 238 2 2 238 3 237 233 3 232 2
0 -240 0 -240 245 0 245 0 0 245 0 245 -240 0 -240 0 2 233 3 232 238 3 237 2
0 485 0 485 -240 0 -240 0 2 473 3 472 238 3 237 2 0 485 0 485 -245 0 -245 0
0 -480 0 -480 -235 0 -235 0 0 240 0 240 -240 0 -240 0 2 233 3 232 237 3 238
2 2 238 3 237 237 3 238 2 2 238 3 237 237 3 238 2 0 245 0 245 -240 0 -240 0
2 713 3 712 238 3 237 2 0 245 0 245 -245 0 -245 0 0 -240 0 -240 -235 0 -235
0 0 480 0 480 -1205 0 -1205 0 0 -485 0 -485 480 0 480 0 0 -475 0 -475 -240
0 -240 0 0 -240 0 -240 -235 0 -235 0 0 480 0 480 -240 0 -240 0 0 240 0 240
-240 0 -240 0 2 233 3 232 238 3 237 2 0 965 0 965 -240 0 -240 0 2 233 3 232
238 3 237 2 0 245 0 245 -240 0 -240 0 2 233 3 232 238 3 237 2 0 245 0 245
-240 0 -240 0 0 240 0 240 -245 0 -245 0 0 -245 0 -245 240 0 240 0 0 -235 0
-235 -240 0 -240 0 0 -240 0 -240 -235 0 -235 0 0 480 0 480 -240 0 -240 0 0
240 0 240 -1205 0 -1205 0 0 -240 0 -240 -235 0 -235 0 0 240 0 240 -725 0
-725 0 0 -240 0 -240 -235 0 -235 0 0 240 0 240 -245 0 -245 0 0 -240z m1440
-725 l0 -475 -235 0 -235 0 0 468 c0 258 3 472 7 475 3 4 109 7 235 7 l228 0
0 -475z m3840 240 l0 -235 -715 0 -715 0 0 228 c0 126 3 232 7 235 3 4 325 7
715 7 l708 0 0 -235z m-4800 -720 l0 -475 -235 0 -235 0 0 240 0 240 -240 0
-240 0 0 228 c0 126 3 232 7 235 3 4 217 7 475 7 l468 0 0 -475z m1920 240 l0
-235 -235 0 -235 0 0 228 c0 126 3 232 7 235 3 4 109 7 235 7 l228 0 0 -235z
m-480 -485 l0 -240 240 0 240 0 0 -235 0 -235 -240 0 -240 0 0 -485 0 -485
240 0 240 0 0 -235 0 -235 -475 0 -475 0 0 480 0 480 -240 0 -240 0 2 473 3
472 238 3 237 2 0 234 c0 128 3 236 7 239 3 4 109 7 235 7 l228 0 0 -240z
m960 5 l0 -235 -235 0 -235 0 0 228 c0 126 3 232 7 235 3 4 109 7 235 7 l228
0 0 -235z m1440 0 l0 -235 -240 0 -240 0 0 -240 0 -240 -475 0 -475 0 2 233 3
232 238 3 237 2 0 234 c0 128 3 236 7 239 3 4 217 7 475 7 l468 0 0 -235z
m1440 0 l0 -235 -235 0 -235 0 0 228 c0 126 3 232 7 235 3 4 109 7 235 7 l228
0 0 -235z m960 0 l0 -235 -235 0 -235 0 0 228 c0 126 3 232 7 235 3 4 109 7
235 7 l228 0 0 -235z m-1440 -480 l0 -235 -240 0 -240 0 0 -485 0 -485 240 0
240 0 0 -240 0 -240 240 0 240 0 0 -235 0 -235 -240 0 -240 0 0 -240 0 -240
-235 0 -235 0 0 240 0 240 -480 0 -480 0 0 240 0 240 -245 0 -245 0 0 -240 0
-240 -235 0 -235 0 2 473 3 472 237 3 238 2 2 238 3 237 233 3 232 2 0 -240 0
-240 245 0 245 0 0 713 c0 393 3 717 7 720 3 4 217 7 475 7 l468 0 0 -235z
m1440 -1200 l0 -955 -235 0 -235 0 0 720 0 720 -240 0 -240 0 0 228 c0 126 3
232 7 235 3 4 217 7 475 7 l468 0 0 -955z m-3840 240 l0 -235 -235 0 -235 0 0
228 c0 126 3 232 7 235 3 4 109 7 235 7 l228 0 0 -235z m2880 0 l0 -235 -235
0 -235 0 0 228 c0 126 3 232 7 235 3 4 109 7 235 7 l228 0 0 -235z m-7200
-1440 l0 -235 -715 0 -715 0 0 228 c0 126 3 232 7 235 3 4 325 7 715 7 l708 0
0 -235z m5280 -245 l0 -480 240 0 240 0 0 -235 0 -235 -240 0 -240 0 0 -240 0
-240 -475 0 -475 0 2 473 3 472 238 3 237 2 0 474 c0 260 3 476 7 479 3 4 109
7 235 7 l228 0 0 -480z m2400 245 l0 -235 -235 0 -235 0 0 228 c0 126 3 232 7
235 3 4 109 7 235 7 l228 0 0 -235z m2880 0 l0 -235 -235 0 -235 0 0 228 c0
126 3 232 7 235 3 4 109 7 235 7 l228 0 0 -235z m-4320 -480 l0 -235 -235 0
-235 0 0 228 c0 126 3 232 7 235 3 4 109 7 235 7 l228 0 0 -235z m1920 0 l0
-235 -235 0 -235 0 0 228 c0 126 3 232 7 235 3 4 109 7 235 7 l228 0 0 -235z
m2880 0 l0 -235 -235 0 -235 0 0 228 c0 126 3 232 7 235 3 4 109 7 235 7 l228
0 0 -235z m-4320 -485 l0 -240 240 0 240 0 0 -235 0 -235 -475 0 -475 0 0 468
c0 258 3 472 7 475 3 4 109 7 235 7 l228 0 0 -240z m1920 -240 l0 -480 240 0
240 0 0 -235 0 -235 -475 0 -475 0 0 708 c0 390 3 712 7 715 3 4 109 7 235 7
l228 0 0 -480z m2880 -715 l0 -715 -475 0 -475 0 2 233 3 232 238 3 237 2 0
474 c0 260 3 476 7 479 3 4 109 7 235 7 l228 0 0 -715z m-12480 0 l0 -235
-235 0 -235 0 0 228 c0 126 3 232 7 235 3 4 109 7 235 7 l228 0 0 -235z m7200
0 l0 -235 -240 0 -240 0 0 -720 0 -720 -34 0 -34 0 2 193 c0 105 -2 217 -6
247 -10 83 -44 183 -103 305 -60 125 -123 213 -225 314 l-70 69 0 384 c0 212
3 388 7 391 3 4 217 7 475 7 l468 0 0 -235z m1440 -5 l0 -240 240 0 240 0 0
-475 0 -475 -235 0 -235 0 0 240 0 240 -720 0 -720 0 2 233 3 232 478 3 477 2
0 233 c0 129 3 237 7 240 3 4 109 7 235 7 l228 0 0 -240z m2880 5 l0 -235
-240 0 -240 0 0 -480 0 -480 -235 0 -235 0 0 708 c0 390 3 712 7 715 3 4 217
7 475 7 l468 0 0 -235z m-5760 -281 c0 -31 -3 -35 -17 -28 -10 4 -99 9 -198
11 -175 4 -184 4 -300 -26 -110 -28 -321 -120 -359 -155 -14 -14 -64 -46 -71
-46 -7 0 -6 265 2 273 3 4 217 7 475 7 l468 0 0 -36z m228 -458 c18 -2 37 -7
43 -13 6 -6 8 -68 7 -154 l-3 -144 -100 0 c-119 0 -162 -14 -196 -63 -22 -33
-24 -47 -27 -174 l-4 -138 156 0 c85 0 157 -3 160 -8 4 -7 -24 -203 -42 -302
l-7 -35 -132 -3 -133 -3 0 -395 0 -396 25 6 25 6 0 -280 0 -280 -235 0 -235 0
0 275 c0 268 0 275 20 275 20 0 20 7 20 395 l0 395 -145 0 -145 0 0 175 0 175
144 0 144 0 5 178 c5 186 16 244 62 324 52 91 140 154 258 185 47 11 187 11
335 -1z m-5508 -706 l0 -240 240 0 240 0 0 -235 0 -235 -475 0 -475 0 0 468
c0 258 3 472 7 475 3 4 109 7 235 7 l228 0 0 -240z m2880 -240 l0 -480 240 0
240 0 0 -235 0 -235 -240 0 -240 0 0 -245 0 -245 245 0 245 0 2 238 3 237 473
3 472 2 0 -235 0 -235 -240 0 -240 0 0 -240 0 -240 -480 0 -480 0 0 -240 0
-240 -240 0 -240 0 0 -240 0 -240 -475 0 -475 0 2 713 3 712 233 3 232 2 0
-240 0 -240 245 0 245 0 0 245 0 245 -240 0 -240 0 2 473 3 472 238 3 237 2 0
474 c0 260 3 476 7 479 3 4 109 7 235 7 l228 0 0 -480z m4800 240 l0 -240 240
0 240 0 0 -235 0 -235 -240 0 -240 0 0 -240 0 -240 -235 0 -235 0 0 480 0 480
-240 0 -240 0 0 228 c0 126 3 232 7 235 3 4 217 7 475 7 l468 0 0 -240z m2400
5 l0 -235 -235 0 -235 0 0 228 c0 126 3 232 7 235 3 4 109 7 235 7 l228 0 0
-235z m960 -480 l0 -235 -235 0 -235 0 0 228 c0 126 3 232 7 235 3 4 109 7
235 7 l228 0 0 -235z m-9600 -720 l0 -475 -235 0 -235 0 0 240 0 240 -240 0
-240 0 0 228 c0 126 3 232 7 235 3 4 217 7 475 7 l468 0 0 -475z m5280 240 l0
-235 -475 0 -475 0 0 156 0 156 78 79 77 78 398 1 397 0 0 -235z m2400 -240
l0 -475 -235 0 -235 0 0 240 0 240 -240 0 -240 0 0 228 c0 126 3 232 7 235 3
4 217 7 475 7 l468 0 0 -475z m2400 240 l0 -235 -235 0 -235 0 0 228 c0 126 3
232 7 235 3 4 109 7 235 7 l228 0 0 -235z m-12960 -480 l0 -235 -235 0 -235 0
0 228 c0 126 3 232 7 235 3 4 109 7 235 7 l228 0 0 -235z m1920 0 l0 -235
-235 0 -235 0 0 228 c0 126 3 232 7 235 3 4 109 7 235 7 l228 0 0 -235z m9600
-240 l0 -475 -235 0 -235 0 0 468 c0 258 3 472 7 475 3 4 109 7 235 7 l228 0
0 -475z m-10080 -240 l0 -235 -235 0 -235 0 0 228 c0 126 3 232 7 235 3 4 109
7 235 7 l228 0 0 -235z m4800 0 l0 -235 -235 0 -235 0 0 228 c0 126 3 232 7
235 3 4 109 7 235 7 l228 0 0 -235z m1440 0 l0 -235 -475 0 -475 0 0 228 c0
126 3 232 7 235 3 4 217 7 475 7 l468 0 0 -235z m1440 0 l0 -235 -240 0 -240
0 0 -240 0 -240 -240 0 -240 0 0 -240 0 -240 -240 0 -240 0 0 -240 0 -240
-480 0 -480 0 0 -240 0 -240 -235 0 -235 0 2 473 3 472 237 3 238 2 2 238 3
237 477 3 478 2 2 238 3 237 238 3 237 2 0 234 c0 128 3 236 7 239 3 4 217 7
475 7 l468 0 0 -235z m960 0 l0 -235 -235 0 -235 0 0 228 c0 126 3 232 7 235
3 4 109 7 235 7 l228 0 0 -235z m3840 -240 l0 -475 -235 0 -235 0 0 240 0 240
-240 0 -240 0 0 228 c0 126 3 232 7 235 3 4 217 7 475 7 l468 0 0 -475z
m-11520 -240 l0 -235 -475 0 -475 0 0 228 c0 126 3 232 7 235 3 4 217 7 475 7
l468 0 0 -235z m3360 -240 l0 -475 -235 0 -235 0 0 468 c0 258 3 472 7 475 3
4 109 7 235 7 l228 0 0 -475z m960 240 l0 -235 -235 0 -235 0 0 228 c0 126 3
232 7 235 3 4 109 7 235 7 l228 0 0 -235z m2880 0 l0 -235 -235 0 -235 0 0
228 c0 126 3 232 7 235 3 4 109 7 235 7 l228 0 0 -235z m1440 0 l0 -235 -475
0 -475 0 0 228 c0 126 3 232 7 235 3 4 217 7 475 7 l468 0 0 -235z m1440 -5
l0 -240 240 0 240 0 0 -235 0 -235 -475 0 -475 0 0 240 0 240 -240 0 -240 0 0
228 c0 126 3 232 7 235 3 4 217 7 475 7 l468 0 0 -240z m-11040 -475 l0 -235
-715 0 -715 0 0 228 c0 126 3 232 7 235 3 4 325 7 715 7 l708 0 0 -235z m8640
0 l0 -235 -235 0 -235 0 0 228 c0 126 3 232 7 235 3 4 109 7 235 7 l228 0 0
-235z m1440 0 l0 -235 -235 0 -235 0 0 228 c0 126 3 232 7 235 3 4 109 7 235
7 l228 0 0 -235z m-6720 -480 l0 -235 -475 0 -475 0 0 228 c0 126 3 232 7 235
3 4 217 7 475 7 l468 0 0 -235z m5760 0 l0 -235 -235 0 -235 0 0 228 c0 126 3
232 7 235 3 4 109 7 235 7 l228 0 0 -235z m-1440 -485 l0 -240 240 0 240 0 0
-235 0 -235 -240 0 -240 0 0 -240 0 -240 -235 0 -235 0 0 480 0 480 -240 0
-240 0 0 228 c0 126 3 232 7 235 3 4 217 7 475 7 l468 0 0 -240z m-3840 -475
l0 -235 -235 0 -235 0 0 228 c0 126 3 232 7 235 3 4 109 7 235 7 l228 0 0
-235z m960 0 l0 -235 -235 0 -235 0 0 228 c0 126 3 232 7 235 3 4 109 7 235 7
l228 0 0 -235z m5760 -480 l0 -715 -715 0 -715 0 0 708 c0 390 3 712 7 715 3
4 325 7 715 7 l708 0 0 -715z m960 240 l0 -475 -235 0 -235 0 0 468 c0 258 3
472 7 475 3 4 109 7 235 7 l228 0 0 -475z m-8160 -240 l0 -235 -235 0 -235 0
0 228 c0 126 3 232 7 235 3 4 109 7 235 7 l228 0 0 -235z m3360 0 l0 -235
-235 0 -235 0 0 228 c0 126 3 232 7 235 3 4 109 7 235 7 l228 0 0 -235z m1440
-480 l0 -235 -235 0 -235 0 0 228 c0 126 3 232 7 235 3 4 109 7 235 7 l228 0
0 -235z m-5760 -480 l0 -235 -235 0 -235 0 0 228 c0 126 3 232 7 235 3 4 109
7 235 7 l228 0 0 -235z m5280 0 l0 -235 -240 0 -240 0 0 -240 0 -240 -235 0
-235 0 0 468 c0 258 3 472 7 475 3 4 217 7 475 7 l468 0 0 -235z m960 0 l0
-235 -235 0 -235 0 0 228 c0 126 3 232 7 235 3 4 109 7 235 7 l228 0 0 -235z
m-6720 -480 l0 -235 -235 0 -235 0 0 228 c0 126 3 232 7 235 3 4 109 7 235 7
l228 0 0 -235z m6240 -245 l0 -480 720 0 720 0 0 -235 0 -235 -955 0 -955 0 0
240 0 240 -240 0 -240 0 2 233 3 232 238 3 237 2 0 234 c0 128 3 236 7 239 3
4 109 7 235 7 l228 0 0 -480z m960 245 l0 -235 -235 0 -235 0 0 228 c0 126 3
232 7 235 3 4 109 7 235 7 l228 0 0 -235z m1440 0 l0 -235 -475 0 -475 0 0
228 c0 126 3 232 7 235 3 4 217 7 475 7 l468 0 0 -235z m480 -480 l0 -235
-235 0 -235 0 0 228 c0 126 3 232 7 235 3 4 109 7 235 7 l228 0 0 -235z m-480
-480 l0 -235 -235 0 -235 0 0 228 c0 126 3 232 7 235 3 4 109 7 235 7 l228 0
0 -235z"/>
<path d="M13440 4075 l0 -245 245 0 245 0 0 245 0 245 -245 0 -245 0 0 -245z"/>
<path d="M13440 15120 l0 -1680 1680 0 1680 0 0 1680 0 1680 -1680 0 -1680 0
0 -1680z m2880 0 l0 -1200 -1200 0 -1200 0 0 1200 0 1200 1200 0 1200 0 0
-1200z"/>
<path d="M14400 15120 l0 -720 720 0 720 0 0 720 0 720 -720 0 -720 0 0 -720z"/>
<path d="M960 12715 l0 -245 245 0 245 0 0 245 0 245 -245 0 -245 0 0 -245z"/>
<path d="M960 2640 l0 -1680 1680 0 1680 0 0 1680 0 1680 -1680 0 -1680 0 0
-1680z m2880 0 l0 -1200 -1200 0 -1200 0 0 1200 0 1200 1200 0 1200 0 0 -1200z"/>
<path d="M1920 2640 l0 -720 720 0 720 0 0 720 0 720 -720 0 -720 0 0 -720z"/>
<path d="M4800 1195 l0 -245 485 0 485 0 0 245 0 245 -485 0 -485 0 0 -245z"/>
<path d="M6240 1195 l0 -245 485 0 485 0 0 245 0 245 -485 0 -485 0 0 -245z"/>
</g>
</svg>
