<?xml version="1.0" encoding="UTF-8" standalone="no"?>
<!-- Created with Inkscape (http://www.inkscape.org/) -->

<svg
   width="65.997162mm"
   height="66.934937mm"
   viewBox="0 0 65.997162 66.934937"
   version="1.1"
   id="svg1"
   xml:space="preserve"
   xmlns:inkscape="http://www.inkscape.org/namespaces/inkscape"
   xmlns:sodipodi="http://sodipodi.sourceforge.net/DTD/sodipodi-0.dtd"
   xmlns="http://www.w3.org/2000/svg"
   xmlns:svg="http://www.w3.org/2000/svg"><sodipodi:namedview
     id="namedview1"
     pagecolor="#ffffff"
     bordercolor="#000000"
     borderopacity="0.25"
     inkscape:showpageshadow="2"
     inkscape:pageopacity="0.0"
     inkscape:pagecheckerboard="0"
     inkscape:deskcolor="#d1d1d1"
     inkscape:document-units="mm"
     inkscape:zoom="0.72248176"
     inkscape:cx="397.24186"
     inkscape:cy="561.25984"
     inkscape:window-width="1920"
     inkscape:window-height="1046"
     inkscape:window-x="-11"
     inkscape:window-y="-11"
     inkscape:window-maximized="1"
     inkscape:current-layer="layer1" /><defs
     id="defs1" /><g
     inkscape:label="Layer 1"
     inkscape:groupmode="layer"
     id="layer1"
     transform="translate(-99.31364,-172.87545)"><path
       style="fill:#d20000;fill-opacity:1"
       d="m 104.98203,239.47067 c -2.85873,-0.68726 -3.28719,-0.91886 -3.74331,-2.02337 -0.22573,-0.54663 -0.59081,-1.19692 -0.81129,-1.4451 -0.747195,-0.84108 -1.013682,-3.28734 -0.801116,-7.35398 0.319721,-6.11676 0.320171,-6.9349 0.0046,-8.33437 -0.366475,-1.62499 -0.407017,-4.61056 -0.165272,-12.17084 0.102369,-3.20146 0.161647,-6.65427 0.13173,-7.67292 -0.120767,-4.11191 -0.0046,-15.30011 0.193743,-18.65312 0.18065,-3.0546 0.314215,-3.79199 0.922255,-5.09178 0.78257,-1.67285 1.69081,-2.45662 2.53596,-2.18838 0.69496,0.22058 0.68243,0.38497 -0.11934,1.56644 -0.58065,0.85565 -0.66145,1.25699 -0.66145,3.28535 0,2.4823 0.38091,3.4867 1.3223,3.4867 1.26239,0 0.94342,1.60512 -0.45567,2.29308 -0.80359,0.39514 -1.02768,0.68121 -1.209,1.54338 -0.12241,0.58208 -0.14862,1.53458 -0.0582,2.11667 0.0904,0.58208 0.17782,1.2091 0.19428,1.39337 0.0165,0.18428 0.48739,0.83912 1.0465,1.45521 1.01527,1.11874 1.01636,1.1224 0.85166,2.86652 -0.16226,1.71828 -0.15207,1.7555 0.63382,2.31511 0.88248,0.62838 2.79466,0.71584 7.19934,0.32931 2.62302,-0.23019 2.86185,-0.17848 3.07367,0.66549 0.34168,1.36135 -0.0225,1.79403 -1.88088,2.23453 -0.95511,0.22639 -1.80149,0.34669 -1.88085,0.26733 -0.19266,-0.19266 -5.81198,-0.28799 -6.98486,-0.1185 -0.50932,0.0736 -1.21256,0.36897 -1.56276,0.65637 -0.61293,0.50303 -0.63461,0.63755 -0.58024,3.60101 0.0618,3.37104 0.23488,3.95515 1.24699,4.20918 1.11226,0.27916 1.53835,-0.4145 1.68976,-2.75086 l 0.13229,-2.04126 1.05834,-0.50825 c 0.86706,-0.41639 1.67997,-0.51217 4.49791,-0.52995 4.10464,-0.0259 4.36563,0.10938 4.36563,2.26271 0,2.02842 0.46588,3.31372 1.33101,3.67207 0.56112,0.23243 0.85226,0.22412 1.26909,-0.0362 0.64707,-0.4041 0.83105,-0.99763 0.83587,-2.69653 0.004,-1.33976 0.33894,-2.22344 1.03891,-2.73933 0.60048,-0.44256 7.51355,-0.30372 8.07493,0.16218 0.2994,0.24848 0.4159,0.83199 0.41882,2.09777 0.005,2.0101 0.11938,2.27384 1.16153,2.67006 0.60071,0.22839 0.88773,0.20312 1.38368,-0.12184 0.60194,-0.39441 0.62574,-0.53412 0.62574,-3.67256 0,-3.02426 -0.0438,-3.30985 -0.60002,-3.90999 -0.58034,-0.6262 -0.67818,-0.64118 -2.98412,-0.45694 -1.31126,0.10476 -2.79742,0.10539 -3.30259,10e-4 -0.50516,-0.104 -1.63285,-0.0905 -2.50598,0.0301 -0.87312,0.12055 -1.84745,0.15548 -2.16517,0.0776 -1.17704,-0.28842 -1.08164,-2.07756 0.13729,-2.57498 0.41173,-0.16801 2.22259,-0.26867 4.35346,-0.24198 4.98733,0.0625 6.32136,-0.58407 5.88008,-2.84975 -0.44475,-2.28349 -0.42061,-2.39007 0.66702,-2.94494 0.87927,-0.44857 1.03713,-0.66984 1.17421,-1.64585 0.0871,-0.62019 0.0614,-1.84199 -0.057,-2.71511 -0.17112,-1.2611 -0.30846,-1.58005 -0.66801,-1.55123 -0.24894,0.0199 -0.38682,-0.0702 -0.3064,-0.20031 0.0804,-0.13011 -0.0399,-0.308 -0.26743,-0.39531 -0.73635,-0.28256 -0.51781,-1.81102 0.38011,-2.65851 0.77519,-0.73166 0.79355,-0.80797 0.78533,-3.26358 -0.01,-2.86744 -0.18866,-3.25009 -1.7198,-3.67517 -1.44094,-0.40004 -2.56804,-0.36784 -4.25121,0.12147 -1.90981,0.5552 -2.0699,0.91272 -1.87095,4.1784 0.15107,2.47963 0.20934,2.68944 0.96288,3.46689 0.44114,0.45515 0.80315,0.94093 0.80446,1.07953 10e-4,0.13859 -0.38148,0.56748 -0.85066,0.95308 -0.79113,0.6502 -0.86546,0.85188 -1.02384,2.77813 -0.19257,2.34199 0.0619,3.21626 0.99144,3.40628 0.33885,0.0693 0.91225,0.18737 1.27421,0.26244 0.93464,0.19385 1.58362,1.25211 1.20346,1.96244 -0.2743,0.51253 -0.52373,0.54691 -3.96865,0.54691 -2.9899,0 -3.7536,-0.0776 -4.09197,-0.41602 -0.76748,-0.76747 0.0565,-2.4944 1.19014,-2.4944 0.71718,0 1.10619,-0.70769 1.05363,-1.9168 -0.0269,-0.61925 -0.0269,-1.36403 -7e-5,-1.65508 0.0553,-0.59827 0.0563,-0.52432 -0.0815,-5.55625 -0.10542,-3.84861 -0.56722,-5.68854 -1.42774,-5.68854 -0.55638,0 -2.47291,-2.05492 -2.47291,-2.65148 0,-0.33798 0.24864,-0.57791 0.7276,-0.70212 0.61331,-0.15904 15.18994,-0.22988 18.05781,-0.0878 0.50933,0.0252 3.78354,-0.0385 7.27604,-0.14155 8.69383,-0.25664 10.54987,0.17126 10.04446,2.31571 -0.11282,0.47868 -0.24008,2.83153 -0.28281,5.22855 -0.0427,2.39702 -0.16487,4.83781 -0.27142,5.42396 -0.29944,1.64725 0.14252,11.51379 0.56506,12.61492 0.26286,0.68501 1.43746,1.05237 3.82766,1.19713 2.67972,0.1623 4.19156,-0.23782 4.67372,-1.23694 0.89368,-1.85185 0.97125,-2.82153 0.76651,-9.58233 -0.27079,-8.94223 -0.29489,-9.35673 -0.64893,-11.16388 -0.32617,-1.66482 -0.16687,-2.12577 0.67837,-1.96301 0.59684,0.11493 1.08132,1.43464 1.58619,4.32068 0.25727,1.4707 0.36198,4.13532 0.34308,8.73125 -0.0149,3.63802 0.0793,7.2802 0.20951,8.09374 0.13019,0.81353 0.22295,9.26697 0.20613,18.78541 -0.0283,16.02277 -0.0657,17.38476 -0.50438,18.3646 -1.49208,3.33278 -1.61639,3.4357 -2.17465,1.80049 -0.18904,-0.55371 -0.6426,-1.26579 -1.00791,-1.58241 -0.63388,-0.54938 -0.87007,-0.57243 -5.17253,-0.50485 -4.66396,0.0733 -4.92521,0.0195 -5.0375,-1.03615 -0.29442,-2.76805 0.1933,-3.04271 5.40302,-3.04271 4.41137,0 5.05027,-0.18239 5.47668,-1.56345 0.43671,-1.41445 0.60221,-5.5513 0.27121,-6.7791 -0.49351,-1.83057 -0.80506,-2.06339 -3.11444,-2.32741 -1.14328,-0.1307 -2.79307,-0.23532 -3.66619,-0.23248 -6.41108,0.0209 -7.30808,0.17727 -7.79786,1.35969 -0.60067,1.45015 0.0378,2.12227 2.02397,2.13081 0.59036,0.003 1.00397,0.21119 1.38906,0.70075 0.79371,1.00904 0.69976,3.00703 -0.1414,3.00703 -0.20271,0 -0.36857,0.09 -0.36857,0.19999 0,0.11 -0.34451,0.3525 -0.76559,0.53888 -1.57593,0.69758 -2.11219,1.46775 -2.30028,3.30363 -0.0998,0.97366 -0.0567,2.08876 0.10044,2.60119 0.15127,0.49331 0.34712,1.32811 0.43522,1.8551 0.0881,0.52699 0.36602,1.19291 0.61759,1.47982 0.88164,1.00546 1.44645,1.13383 3.79867,0.8634 2.99781,-0.34466 7.63389,-0.32515 8.67131,0.0365 1.12503,0.39218 0.97944,0.99921 -0.41476,1.72927 -1.0304,0.53957 -1.58307,0.58431 -9.25723,0.74938 -11.11046,0.23899 -38.14592,0.32835 -38.47145,0.12716 -0.14491,-0.0896 -1.00444,-0.0727 -1.91005,0.0374 -3.25661,0.39612 -4.585,0.38504 -6.40907,-0.0535 z m 16.99917,-2.23318 c 0.94083,-0.65899 1.15985,-2.15923 1.10104,-7.5422 -0.0406,-3.72117 0.0313,-5.10303 0.28155,-5.40452 0.44386,-0.53481 2.86703,-0.54304 3.62476,-0.0123 0.50376,0.35285 0.57819,0.73583 0.73271,3.77031 0.0946,1.85767 0.19735,4.49036 0.22833,5.85042 0.0511,2.24128 0.11457,2.52002 0.67838,2.97657 0.81909,0.66325 1.94552,0.64003 2.57295,-0.053 0.45855,-0.50652 0.50806,-1.0566 0.54868,-6.09581 0.0246,-3.04648 0.11783,-5.98086 0.20729,-6.52084 0.20074,-1.21169 -0.71789,-3.20129 -1.69917,-3.68013 -0.36975,-0.18043 -1.28876,-0.27309 -2.11666,-0.21342 -6.51801,0.46978 -6.623,0.46994 -7.8235,0.0115 -1.10162,-0.42071 -1.18032,-0.51563 -1.18032,-1.42357 0,-1.54469 0.53694,-1.7269 4.89479,-1.66103 4.71455,0.0713 6.87991,-0.31138 7.37466,-1.30314 0.29506,-0.59146 0.2931,-0.81984 -0.0121,-1.40224 -0.20048,-0.38264 -0.6294,-0.75043 -0.95314,-0.81731 -1.4525,-0.30005 -5.94507,-0.42687 -6.57932,-0.18572 -1.00811,0.38328 -4.65595,0.3847 -6.13634,0.002 -0.9914,-0.25603 -1.39231,-0.25964 -1.78235,-0.0161 -0.35048,0.21888 -2.34527,0.31427 -6.57188,0.31427 h -6.06865 l -0.81411,0.81411 c -0.99608,0.99608 -1.01686,1.4045 -0.11401,2.24124 0.62445,0.57871 0.93178,0.64835 2.84427,0.64451 1.1793,-0.002 3.49928,-0.11639 5.15552,-0.25339 3.57442,-0.29566 4.37834,-0.0559 4.6034,1.37273 0.10633,0.67501 0.01,0.97153 -0.4316,1.32648 -0.49385,0.39707 -1.23728,0.45791 -5.65761,0.46302 l -5.08906,0.006 -0.8362,0.74715 -0.83621,0.74715 -0.0146,6.46491 c -0.0143,6.33508 -0.002,6.48746 0.61617,7.58723 0.64494,1.14752 1.1738,1.36456 2.10743,0.86489 0.69084,-0.36972 0.84751,-1.61822 0.90429,-7.20595 0.0332,-3.26837 0.15231,-5.06275 0.3491,-5.25954 0.49289,-0.49289 3.57124,-0.59316 4.14722,-0.13509 0.60972,0.4849 0.90586,3.62405 0.67635,7.16946 -0.16496,2.54842 0.24498,4.95853 0.96716,5.68602 0.65768,0.66252 1.7807,-0.15264 2.01289,-1.46108 0.28445,-1.60298 0.25064,-6.2979 -0.0516,-7.1649 -0.24332,-0.69798 -0.17443,-1.42179 0.3563,-3.74345 0.1407,-0.61551 0.56424,-0.78989 2.33436,-0.96109 1.72242,-0.16659 1.77915,-0.15194 2.60327,0.67218 0.71038,0.71038 0.81475,0.97041 0.66565,1.65844 -0.0973,0.44878 -0.2386,2.53654 -0.31411,4.63947 -0.14623,4.0729 0.0684,5.45842 0.9881,6.37811 0.62002,0.62002 0.75983,0.62999 1.50588,0.10744 z m 21.74157,-1.11916 c 0.45368,-0.25988 0.85589,-0.74531 0.92806,-1.12011 0.19432,-1.00904 0.2348,-7.04886 0.0786,-11.72417 -0.1181,-3.53478 -0.21385,-4.2654 -0.61742,-4.71134 -0.9582,-1.0588 -2.74976,0.004 -2.74976,1.63054 0,0.55964 -0.20787,1.24473 -0.47944,1.5801 -0.69856,0.86269 -1.47138,0.50063 -2.14856,-1.00657 -0.8492,-1.89008 -0.94592,-2.02162 -1.67838,-2.28274 -0.503,-0.17931 -0.85256,-0.12903 -1.34469,0.19342 -0.90093,0.59031 -1.06685,1.93261 -0.72393,5.85641 0.15197,1.73893 0.2029,4.196 0.11317,5.46014 -0.27099,3.81766 0.57825,6.14631 2.4364,6.68069 1.05251,0.30269 5.36309,-0.085 6.18596,-0.55637 z m -4.6274,-2.90437 c -0.32339,-0.49356 -0.51145,-1.404 -0.5875,-2.84427 -0.17645,-3.34181 -0.14693,-3.86116 0.2411,-4.24071 0.59345,-0.58048 1.63504,-0.71758 2.2164,-0.29174 0.48188,0.35298 0.52916,0.6932 0.52916,3.8078 0,3.67548 -0.19106,4.29485 -1.32488,4.29485 -0.36075,0 -0.78764,-0.28846 -1.07428,-0.72593 z m 7.55854,-17.92329 c 3.41974,-0.0742 6.3963,-0.12849 6.61458,-0.12065 0.21828,0.008 2.11364,0.0764 4.2119,0.15242 4.06354,0.14717 4.77327,0.004 5.23824,-1.05693 0.1365,-0.31144 0.17428,-0.86295 0.084,-1.22559 -0.30371,-1.21925 -0.99814,-1.33871 -6.75596,-1.16225 -2.91042,0.0892 -7.73245,0.1441 -10.71563,0.12201 -5.53291,-0.041 -8.42988,0.24005 -10.0018,0.97024 -0.78195,0.36323 -0.86529,0.50616 -0.79375,1.36134 l 0.0799,0.9555 2.38125,0.13229 c 1.30968,0.0728 2.61937,0.104 2.91041,0.0694 0.29104,-0.0346 3.32714,-0.1236 6.74688,-0.19779 z m -5.84278,-6.47446 c 0.32247,-0.17257 1.14393,-0.41436 1.82548,-0.5373 2.18484,-0.39412 2.74916,-0.54751 3.56354,-0.96865 1.05283,-0.54443 3.72392,-0.30708 7.99438,0.71038 1.74625,0.41605 4.18703,0.83361 5.42396,0.9279 2.07748,0.15836 2.29551,0.12728 2.85947,-0.40766 1.01904,-0.9666 0.68631,-1.63503 -1.13968,-2.2895 -0.87312,-0.31294 -2.41812,-0.65521 -3.43333,-0.76061 -1.0152,-0.10539 -2.27805,-0.34412 -2.80633,-0.5305 -0.52828,-0.18639 -1.78125,-0.42334 -2.78438,-0.52656 -1.14988,-0.11832 -2.01942,-0.3608 -2.35304,-0.65617 -1.11678,-0.98875 -2.13449,-0.90301 -3.44927,0.29057 -0.30347,0.2755 -1.28587,0.60833 -2.24896,0.76194 -1.8146,0.28942 -3.34051,0.59321 -5.28198,1.05159 -0.65484,0.15461 -1.57594,0.35503 -2.04689,0.44537 -0.99771,0.1914 -2.45103,1.47488 -2.45103,2.16461 0,0.55801 0.50942,1.26543 1.01974,1.41607 0.4831,0.14262 4.57419,-0.69858 5.30832,-1.09148 z m -1.69785,-9.99225 c 0.45859,-0.94899 0.63944,-1.09195 1.35591,-1.07189 0.45533,0.0128 1.18686,-0.23328 1.62835,-0.54764 1.1474,-0.81703 1.79762,-0.7146 3.26551,0.51438 2.91784,2.44296 4.14948,2.98733 5.00569,2.21247 1.02459,-0.92724 0.5221,-2.24751 -1.3563,-3.56362 -2.43935,-1.70913 -2.8877,-2.14296 -2.8877,-2.79415 0,-0.81236 0.83058,-1.32988 2.51354,-1.56616 1.67984,-0.23585 1.98438,-0.49906 1.98438,-1.7151 0,-1.41856 -0.57541,-1.81791 -2.75689,-1.91338 -1.64498,-0.072 -1.87212,-0.15119 -2.37529,-0.82816 -0.49224,-0.66227 -0.55636,-1.111 -0.55636,-3.89334 0,-2.6165 0.0761,-3.2209 0.45324,-3.59785 0.36669,-0.36654 0.57547,-0.39738 1.09321,-0.16148 0.70519,0.32131 0.94561,1.36011 0.68907,2.97726 -0.26835,1.6916 0.61955,3.175 1.90043,3.175 0.50857,0 0.88775,-0.21536 1.18919,-0.67542 0.38013,-0.58015 0.41781,-1.13816 0.26716,-3.9563 -0.0965,-1.80448 -0.23708,-3.44161 -0.31246,-3.63806 -0.28293,-0.7373 -1.62656,-1.27449 -2.74176,-1.09616 -0.99452,0.15903 -1.15572,0.0891 -2.42563,-1.05269 -0.74817,-0.67267 -1.56618,-1.22303 -1.8178,-1.22303 -0.25161,0 -0.93941,0.45844 -1.52844,1.01877 -1.09142,1.03825 -2.04409,1.3535 -4.1084,1.35956 -1.35293,0.004 -2.04387,0.7324 -2.07326,2.18573 -0.0125,0.61846 -0.0555,1.5412 -0.0956,2.05052 -0.0925,1.17448 0.38037,4.26039 0.71958,4.69635 0.14154,0.1819 0.71226,0.33073 1.26827,0.33073 1.4351,0 1.83469,-0.6728 1.83469,-3.08913 0,-1.05218 0.13818,-2.21631 0.30706,-2.58696 0.65809,-1.44436 2.54417,-0.40568 2.24029,1.23374 -0.0887,0.47876 -0.17516,1.91241 -0.19203,3.18588 -0.0421,3.17967 -0.31076,3.50364 -3.08258,3.71739 -2.52011,0.19434 -2.80445,0.29435 -3.26076,1.14696 -0.31438,0.58743 -0.29394,0.78822 0.16687,1.63962 l 0.52511,0.97021 1.99535,-0.0868 c 1.53976,-0.067 2.07144,0.005 2.3286,0.31473 0.42724,0.5148 0.28162,1.77713 -0.23416,2.02976 -2.02761,0.99311 -3.02388,1.61594 -4.19157,2.62038 -1.11297,0.95738 -1.36468,1.32966 -1.36468,2.01842 0,0.67659 0.14469,0.90058 0.72761,1.12637 1.84725,0.71555 3.07006,0.25591 3.9026,-1.4669 z m 16.56025,27.47894 c -0.21303,-0.14378 -0.42255,-0.85818 -0.48839,-1.66522 -0.10211,-1.2518 -0.0383,-1.48536 0.55843,-2.04255 0.91264,-0.85222 2.98658,-0.85942 3.67648,-0.0128 0.55827,0.6851 0.61693,2.57924 0.1017,3.28385 -0.40942,0.55991 -3.19696,0.87623 -3.84822,0.43668 z m 1.56059,-31.32291 c -0.66869,-1.09627 -0.89668,-2.31062 -0.67029,-3.57024 0.0982,-0.5466 0.24052,-1.66912 0.31618,-2.49449 0.1637,-1.78577 0.77492,-2.55567 1.65501,-2.08466 0.68991,0.36923 0.75663,0.71957 0.91731,4.81686 0.11628,2.96493 0.0779,3.39652 -0.33512,3.77031 -0.71357,0.64577 -1.30619,0.508 -1.88309,-0.43778 z m -50.60167,-0.35601 c -0.35697,-0.35697 -0.20253,-2.17855 0.22057,-2.60165 0.25478,-0.25479 0.87679,-0.41578 1.6064,-0.41578 0.70555,0 1.35231,-0.16169 1.5875,-0.39687 0.21828,-0.21828 0.29907,-0.3987 0.17953,-0.40093 -0.11953,-0.002 -0.0502,-0.10987 0.15409,-0.2392 0.27617,-0.17485 0.3607,-0.79912 0.32962,-2.43446 -0.0416,-2.18797 -0.0472,-2.20486 -1.09902,-3.27654 -0.58148,-0.59248 -1.05723,-1.21726 -1.05723,-1.38839 0,-0.17114 0.48094,-0.76195 1.06875,-1.31291 l 1.06876,-1.00174 -0.18377,-1.95121 c -0.2754,-2.92406 -0.70361,-3.3145 -3.76427,-3.43224 -2.44782,-0.0942 -2.87407,-0.3045 -2.51473,-1.24092 0.35961,-0.93712 1.70476,-1.25393 6.30585,-1.48515 4.50927,-0.2266 6.34798,-0.13319 6.63873,0.33726 0.0855,0.13832 -0.39008,0.81257 -1.0568,1.49833 -0.66673,0.68577 -1.2123,1.33614 -1.21238,1.44528 -8e-5,0.10914 -0.1741,0.19844 -0.38671,0.19844 -0.57729,0 -1.38476,0.98527 -1.57112,1.91709 -0.0904,0.45216 -0.16718,3.38619 -0.17054,6.52006 l -0.006,5.69794 0.93488,0.85647 c 0.96834,0.88711 1.22281,1.90406 0.60416,2.41437 -0.1819,0.15005 -1.64042,0.33017 -3.24115,0.40028 -1.60073,0.0701 -3.20953,0.20852 -3.57511,0.30757 -0.36557,0.0991 -0.75253,0.0923 -0.85989,-0.0151 z m -0.98456,-5.20976 c -0.36139,-0.18285 -0.77223,-0.65992 -0.91298,-1.06015 -0.32633,-0.9279 0.36179,-1.69496 1.70233,-1.89763 1.20407,-0.18204 1.57139,0.0833 1.76476,1.2749 0.27143,1.67266 -0.96464,2.48709 -2.55411,1.68288 z m 20.68602,0.0228 c -0.52627,-0.52627 -0.37729,-1.72728 0.27054,-2.18104 0.87937,-0.61594 2.21016,-0.52925 2.70425,0.17616 0.56213,0.80256 0.51749,1.71807 -0.0999,2.04848 -0.69722,0.37314 -2.48527,0.34602 -2.8749,-0.0436 z m -10.49431,-0.99476 c -0.83312,-0.92058 0.0795,-2.92107 1.33263,-2.92107 1.20007,0 1.43585,0.25663 1.43585,1.56289 0,0.68293 -0.14288,1.38456 -0.3175,1.55919 -0.49827,0.49826 -1.92397,0.38134 -2.45098,-0.20101 z m 41.41183,-6.21326 c -0.45632,-0.48573 -0.57685,-1.04079 -0.69737,-3.21158 -0.0801,-1.4434 -0.27337,-3.2092 -0.4294,-3.92401 -0.25321,-1.16001 -0.23,-1.33921 0.21601,-1.66789 0.96889,-0.71402 4.84811,-0.14787 5.44731,0.79499 0.49172,0.77375 0.22798,1.24651 -0.69538,1.24651 -1.41666,0 -1.63551,0.42162 -1.82482,3.51562 -0.0931,1.522 -0.23914,2.94923 -0.32448,3.17163 -0.25874,0.67427 -1.09397,0.71116 -1.69187,0.0747 z m -41.2017,0.0988 c -0.32192,-0.32192 -0.15216,-2.5906 0.22998,-3.0735 0.46534,-0.58804 1.79208,-0.70078 2.34614,-0.19936 0.69921,0.63277 0.6893,2.31954 -0.0178,3.02662 -0.57432,0.57432 -2.08488,0.71971 -2.55835,0.24624 z m 11.48803,-1.34751 c -0.59517,-0.21737 -0.7276,-0.42634 -0.7276,-1.1481 0,-1.34679 0.23547,-1.71938 1.08664,-1.71938 1.57403,0 2.43432,1.92361 1.23574,2.76312 -0.66522,0.46594 -0.61396,0.46259 -1.59478,0.10436 z m -22.60598,-0.35271 c -1.19271,-0.83541 -0.10708,-2.77935 1.55217,-2.77935 1.2106,0 1.80538,0.4389 1.80538,1.33222 0,1.56777 -1.97191,2.41767 -3.35755,1.44713 z"
       id="path1" /></g></svg>
