<?xml version="1.0" encoding="UTF-8" standalone="no"?>
<!-- Created with Inkscape (http://www.inkscape.org/) -->

<svg
   width="159.67403mm"
   height="159.63834mm"
   viewBox="0 0 159.67403 159.63834"
   version="1.1"
   id="svg1"
   xml:space="preserve"
   xmlns:inkscape="http://www.inkscape.org/namespaces/inkscape"
   xmlns:sodipodi="http://sodipodi.sourceforge.net/DTD/sodipodi-0.dtd"
   xmlns="http://www.w3.org/2000/svg"
   xmlns:svg="http://www.w3.org/2000/svg"><sodipodi:namedview
     id="namedview1"
     pagecolor="#ffffff"
     bordercolor="#000000"
     borderopacity="0.25"
     inkscape:showpageshadow="2"
     inkscape:pageopacity="0.0"
     inkscape:pagecheckerboard="0"
     inkscape:deskcolor="#d1d1d1"
     inkscape:document-units="mm" /><defs
     id="defs1" /><g
     inkscape:label="Layer 1"
     inkscape:groupmode="layer"
     id="layer1"
     transform="translate(-13.061515,-83.829012)"><g
       id="g1"
       transform="translate(-8.8416767,0.80378431)"><path
         style="fill:#1575f1"
         d="m 99.31441,174.15611 c -0.02976,-0.0482 -0.244633,-0.11973 -0.477496,-0.15908 -0.96711,-0.16339 -2.674547,-0.94835 -3.888936,-1.78785 -2.155281,-1.48995 -3.842158,-3.97896 -4.521747,-6.67192 -0.252376,-1.00007 -0.279149,-1.27403 -0.275633,-2.82038 0.0035,-1.52652 0.033,-1.82223 0.271603,-2.72019 0.595566,-2.24133 1.542858,-3.92118 3.074178,-5.4515 1.454618,-1.45367 3.29872,-2.49702 5.356891,-3.03081 1.19723,-0.31051 3.2073,-0.41842 4.43902,-0.23832 7.21838,1.05546 11.67048,8.26173 9.38244,15.18662 -0.94452,2.85865 -3.00612,5.2507 -5.71789,6.63442 -1.00845,0.51457 -2.43151,0.9868 -3.0045,0.99701 l -0.40919,0.007 -0.0264,-3.86702 c -0.0189,-2.77059 0.006,-3.90606 0.0879,-4.00473 0.0848,-0.10224 0.42101,-0.13772 1.30498,-0.13772 0.80791,0 1.21438,-0.0383 1.26436,-0.11918 0.10538,-0.17051 0.54595,-3.01802 0.48277,-3.12025 -0.029,-0.0469 -0.70185,-0.0853 -1.49526,-0.0853 -1.14817,0 -1.46771,-0.0303 -1.56583,-0.14853 -0.0875,-0.10538 -0.11299,-0.52464 -0.0879,-1.44321 0.0323,-1.18211 0.0571,-1.32639 0.28539,-1.6594 0.35394,-0.5163 0.61182,-0.60926 1.86568,-0.67251 l 1.10823,-0.0559 0.0279,-1.42384 c 0.0249,-1.2736 0.009,-1.43092 -0.14684,-1.4909 -0.0961,-0.0369 -0.83403,-0.0929 -1.63985,-0.1246 -2.12961,-0.0837 -3.0808,0.20323 -4.00765,1.20875 -0.87159,0.94556 -1.130376,1.88258 -1.133025,4.10246 -0.0012,1.00369 -0.03987,1.504 -0.122647,1.58678 -0.08181,0.0818 -0.5506,0.1209 -1.450067,0.1209 -1.11909,0 -1.338835,0.0252 -1.390322,0.15936 -0.03364,0.0876 -0.06115,0.76399 -0.06115,1.50298 0,0.73899 0.02752,1.41533 0.06115,1.50298 0.05151,0.13424 0.271921,0.15936 1.398135,0.15936 1.007677,0 1.365134,0.0339 1.451277,0.13772 0.08188,0.0986 0.106807,1.23121 0.0879,3.99321 l -0.0264,3.8555 -0.223476,0.0827 c -0.122913,0.0454 -0.247826,0.0433 -0.277585,-0.005 z"
         id="path2" /><path
         style="fill:#fd0604"
         d="m 60.619393,242.53229 c -0.02704,-0.0705 -0.03695,-1.16987 -0.02202,-2.44313 l 0.02714,-2.31503 h 4.835903 4.835904 l 0.02698,2.44314 0.02698,2.44314 h -4.840856 c -3.823683,0 -4.851187,-0.0269 -4.890019,-0.12812 z m 14.50771,0 c -0.02704,-0.0705 -0.03695,-1.16987 -0.02202,-2.44313 l 0.02714,-2.31503 h 4.835903 4.835903 l 0.02698,2.44314 0.02698,2.44314 h -4.840857 c -3.823682,0 -4.851186,-0.0269 -4.890018,-0.12812 z m 29.037327,0.061 c -0.0369,-0.0369 -0.0672,-1.10235 -0.0672,-2.36757 0,-1.26523 -0.0113,-2.30964 -0.0252,-2.32092 -0.0138,-0.0113 -1.09059,-0.0453 -2.39276,-0.0756 l -2.367579,-0.0551 v -2.41795 -2.41795 l 2.367579,-0.0504 2.36758,-0.0504 0.0272,-2.25966 c 0.0209,-1.74052 -0.002,-2.27832 -0.10075,-2.34085 -0.21939,-0.13925 -9.185538,-0.10403 -9.3262,0.0366 -0.08697,0.087 -0.120898,0.76608 -0.120898,2.41974 v 2.29885 l -2.443139,-0.027 -2.443138,-0.027 v -2.41795 -2.41795 l 2.367577,-0.0504 2.367578,-0.0504 0.05037,-2.36758 0.05037,-2.36758 7.20348,-0.0504 7.20348,-0.0504 0.0504,-2.36757 0.0504,-2.36758 2.36758,-0.0504 2.36757,-0.0504 0.0271,-2.29202 c 0.0149,-1.2606 0.0149,-2.30124 0,-2.31251 -0.0149,-0.0113 -1.09249,-0.0453 -2.39465,-0.0756 l -2.36758,-0.0551 -0.0262,-4.72984 c -0.0201,-3.63017 -0.0552,-4.74828 -0.15112,-4.80917 -0.21362,-0.13567 -4.34863,-0.10022 -4.48731,0.0385 -0.0906,0.0906 -0.1209,1.30322 -0.1209,4.83687 v 4.71598 l -4.86109,-0.0262 -4.86109,-0.0262 -0.02713,-2.31246 c -0.01989,-1.69577 -0.0602,-2.33347 -0.151122,-2.39123 -0.212943,-0.13526 -4.348053,-0.0993 -4.486379,0.0391 -0.08696,0.087 -0.120897,0.76569 -0.120897,2.41796 v 2.29705 h -2.297054 c -1.652267,0 -2.330991,0.0339 -2.417952,0.1209 -0.138325,0.13832 -0.174317,4.27343 -0.03905,4.48638 0.05776,0.0909 0.695457,0.13122 2.391222,0.15112 l 2.312459,0.0271 0.02698,2.44314 0.02698,2.44314 H 84.97715 c -3.534289,0 -4.747106,0.0303 -4.837694,0.12089 -0.09059,0.0906 -0.120898,1.30341 -0.120898,4.8377 v 4.7168 l -2.443138,-0.027 -2.443139,-0.027 -0.02713,-2.31246 c -0.0199,-1.69576 -0.0602,-2.33346 -0.151122,-2.39122 -0.212944,-0.13527 -4.348053,-0.0993 -4.486379,0.039 -0.08696,0.087 -0.120897,0.7659 -0.120897,2.41892 v 2.29802 l -4.861091,-0.0262 -4.86109,-0.0262 v -9.67181 -9.6718 h 2.417952 2.417951 l 0.05506,2.36757 c 0.03028,1.30217 0.06429,2.37977 0.07556,2.39466 0.01127,0.0149 1.051908,0.0149 2.312517,0 l 2.292017,-0.0271 0.05037,-2.36758 0.05037,-2.36757 2.367577,-0.0504 2.367578,-0.0504 0.02708,-2.29202 c 0.01489,-1.26061 0.01489,-2.30124 0,-2.31252 -0.01489,-0.0113 -1.092488,-0.0453 -2.394656,-0.0756 l -2.367577,-0.0551 -0.02713,-2.31246 c -0.0199,-1.69576 -0.0602,-2.33346 -0.151122,-2.39122 -0.212944,-0.13527 -4.348054,-0.0993 -4.486379,0.0391 -0.08697,0.087 -0.120898,0.76608 -0.120898,2.41974 v 2.29885 l -2.443138,-0.027 -2.443139,-0.027 v -2.41795 -2.41795 l 2.367578,-0.0504 2.367577,-0.0504 0.02708,-2.29202 c 0.01489,-1.2606 0.01489,-2.30124 0,-2.31251 -0.01489,-0.0113 -1.092489,-0.0453 -2.394656,-0.0756 l -2.367578,-0.0551 -0.02713,-2.31246 c -0.0199,-1.69577 -0.0602,-2.33347 -0.151122,-2.39122 -0.216646,-0.13763 -9.183171,-0.10007 -9.322282,0.039 -0.138325,0.13833 -0.174317,4.27344 -0.03905,4.48638 0.05776,0.0909 0.695457,0.13123 2.391222,0.15113 l 2.312459,0.0271 0.02698,2.44354 0.02698,2.44355 -12.116737,-0.0256 -12.116738,-0.0256 -0.0257,-9.56543 c -0.02015,-7.49887 -0.0528,-9.58264 -0.151122,-9.64508 -0.213971,-0.13588 -4.348929,-0.10071 -4.487808,0.0382 -0.09233,0.0923 -0.120898,2.37805 -0.120898,9.6736 v 9.5527 l -2.443138,-0.027 -2.443139,-0.027 v -9.67181 -9.6718 l 2.367578,-0.0504 2.367577,-0.0504 0.05037,-4.78553 0.05037,-4.78553 2.367578,-0.0504 2.367577,-0.0504 0.02708,-2.29201 c 0.01489,-1.26061 0.01489,-2.30224 0,-2.31474 -0.01489,-0.0125 -2.180567,-0.0465 -4.812608,-0.0756 l -4.785529,-0.0528 v -2.41796 -2.41795 h 4.835903 4.835903 l 0.05506,2.36758 c 0.03028,1.30217 0.06429,2.37936 0.07556,2.39376 0.01128,0.0144 2.139986,0.0144 4.730469,0 l 4.709968,-0.0262 0.0257,-9.51442 c 0.02038,-7.54494 -4.72e-4,-9.53104 -0.100748,-9.5947 -0.214712,-0.13632 -4.349561,-0.10175 -4.48884,0.0375 -0.08696,0.087 -0.120897,0.76568 -0.120897,2.41795 v 2.29705 H 34.19836 c -1.652267,0 -2.330991,0.0339 -2.417952,0.1209 -0.08697,0.087 -0.120898,0.76608 -0.120898,2.41974 v 2.29885 l -2.443138,-0.027 -2.443139,-0.027 -0.02569,-9.59625 c -0.01413,-5.27793 -0.0368,-9.60547 -0.05037,-9.61674 -0.01357,-0.0113 -1.090089,-0.0453 -2.392256,-0.0756 l -2.367578,-0.0551 v -2.41795 -2.41796 l 2.367578,-0.0504 2.367577,-0.0504 0.05037,-2.36758 0.05037,-2.36758 2.367578,-0.0504 2.367577,-0.0504 0.05037,-4.78553 0.05037,-4.78553 h 12.089759 12.089758 l 0.05506,2.36758 c 0.03028,1.30217 0.06429,2.37808 0.07556,2.39091 0.01128,0.0128 1.074577,0.0355 2.362891,0.0504 l 2.342391,0.0271 0.02698,2.44314 0.02698,2.44313 h -2.298845 c -1.65366,0 -2.332776,0.0339 -2.419743,0.1209 -0.08696,0.087 -0.120897,0.7658 -0.120897,2.41846 v 2.29755 l -9.696994,-0.0257 -9.696993,-0.0257 -0.02713,-2.31246 c -0.0199,-1.69576 -0.0602,-2.33346 -0.151122,-2.39122 -0.212944,-0.13527 -4.348054,-0.0993 -4.486379,0.0391 -0.09173,0.0917 -0.120525,1.79941 -0.119355,7.07755 8.49e-4,3.82615 0.03781,7.01378 0.08214,7.0836 0.06332,0.0998 1.083049,0.12134 4.7588,0.10075 l 4.678206,-0.0262 0.05037,-2.36758 0.05037,-2.36757 h 2.417952 2.417951 l 0.05506,2.36757 c 0.03028,1.30217 0.06429,2.37977 0.07556,2.39466 0.01128,0.0149 1.051908,0.0149 2.312517,0 l 2.292017,-0.0271 0.05037,-2.36758 0.05037,-2.36757 h 4.835903 4.835903 l 0.05506,2.36757 c 0.03028,1.30217 0.06428,2.37977 0.07556,2.39466 0.01127,0.0149 1.051908,0.0149 2.312517,0 l 2.292016,-0.0271 0.05037,-7.20348 0.05037,-7.20348 h 2.417952 2.417952 l 0.05506,2.36758 c 0.03028,1.30217 0.06429,2.37936 0.07556,2.39376 0.01127,0.0144 2.139986,0.0144 4.730469,0 l 4.709968,-0.0262 0.05037,-2.36758 0.05037,-2.36758 h 2.417952 2.417951 l 0.02698,2.44314 0.02698,2.44314 h -2.298845 c -1.653661,0 -2.332776,0.0339 -2.419743,0.1209 -0.08696,0.087 -0.120898,0.76568 -0.120898,2.41795 v 2.29705 h -4.715006 c -3.532896,0 -4.745316,0.0303 -4.835903,0.1209 -0.138814,0.13881 -0.174076,4.27379 -0.03827,4.48764 0.06193,0.0975 1.662603,0.13098 7.227125,0.15112 l 7.147582,0.0259 0.02698,2.44355 0.02698,2.44354 -12.116738,-0.0256 -12.116737,-0.0256 -0.02713,-2.31246 c -0.0199,-1.69576 -0.0602,-2.33346 -0.151122,-2.39122 -0.216646,-0.13762 -9.183171,-0.10006 -9.322282,0.0391 -0.138325,0.13833 -0.174317,4.27344 -0.03905,4.48638 0.05776,0.0909 0.695457,0.13123 2.391222,0.15112 l 2.312459,0.0271 0.02698,2.44314 0.02698,2.44314 h -2.298845 c -1.65366,0 -2.332776,0.0339 -2.419743,0.1209 -0.138325,0.13832 -0.174317,4.27343 -0.03905,4.48638 0.05776,0.0909 0.695457,0.13122 2.391222,0.15112 l 2.312459,0.0271 0.05506,2.36758 c 0.03028,1.30217 0.06429,2.37936 0.07556,2.39376 0.01128,0.0144 2.139987,0.0144 4.730469,0 l 4.709968,-0.0262 0.05037,-2.36758 0.05037,-2.36758 2.367578,-0.0504 2.367578,-0.0504 0.05037,-2.36758 0.05037,-2.36757 h 4.835903 4.835903 l 0.05506,2.36757 c 0.03028,1.30217 0.06429,2.37808 0.07556,2.39091 0.01127,0.0128 1.074576,0.0355 2.362891,0.0504 l 2.34239,0.027 0.05506,2.36758 c 0.03028,1.30217 0.06429,2.37807 0.07556,2.39091 0.01128,0.0128 1.074576,0.0355 2.362891,0.0504 l 2.342391,0.027 0.05506,2.36758 c 0.03028,1.30217 0.06429,2.37891 0.07556,2.39277 0.01128,0.0139 0.639209,0.0252 1.395408,0.0252 h 1.374908 l 0.822434,0.83117 c 1.505013,1.521 3.606973,2.73415 5.443156,3.14153 l 0.505279,0.1121 0.05445,2.76832 c 0.02995,1.52257 0.06395,2.7805 0.07556,2.79539 0.01161,0.0149 1.05252,0.0149 2.31313,0 l 2.29202,-0.0271 0.0268,-2.74917 c 0.0202,-2.0739 0.0573,-2.75826 0.15112,-2.78617 1.96992,-0.58627 3.0791,-1.08228 4.17336,-1.86627 l 0.58536,-0.41937 0.0246,1.29104 c 0.0135,0.71007 0.0485,1.39349 0.0777,1.51872 l 0.0531,0.22768 4.7078,-0.0262 4.7078,-0.0262 0.0271,-2.29201 c 0.0149,-1.26061 0.0149,-2.30202 0,-2.31424 -0.0149,-0.0122 -1.78417,-0.0462 -3.93174,-0.0756 l -3.90466,-0.0533 0.57203,-0.85429 c 0.68323,-1.02037 1.12658,-1.95927 1.48466,-3.14416 0.25669,-0.84936 0.27417,-0.87619 0.59062,-0.90673 l 0.32611,-0.0315 0.0504,-7.20349 0.0504,-7.20348 2.36758,-0.0504 2.36758,-0.0504 0.0272,-2.25967 c 0.0209,-1.74052 -0.002,-2.27831 -0.10075,-2.34085 -0.0704,-0.0447 -2.17384,-0.0819 -4.67442,-0.0827 -3.67455,-0.001 -4.56796,0.0243 -4.65835,0.13321 -0.0764,0.0921 -0.12021,1.31832 -0.13827,3.87304 l -0.0264,3.73827 -0.75561,-0.51143 c -0.97249,-0.65822 -2.15035,-1.21488 -3.22629,-1.52476 -0.73446,-0.21153 -0.85895,-0.27933 -0.88935,-0.4844 -0.0194,-0.13115 -0.0828,-0.26795 -0.14089,-0.30401 -0.1951,-0.12119 -9.163068,-0.0935 -9.310364,0.0287 -0.09942,0.0825 -0.134836,0.44174 -0.134836,1.36756 v 1.25565 l -1.048305,1.05212 -1.048305,1.05212 -1.394834,-0.0281 -1.394833,-0.0281 v -4.83591 -4.8359 l 2.367577,-0.0504 2.367578,-0.0504 0.02708,-2.29201 c 0.01489,-1.26061 0.01489,-2.30125 0,-2.31252 -0.01489,-0.0113 -1.092488,-0.0453 -2.394656,-0.0756 l -2.367577,-0.0551 v -2.41795 -2.41796 l 2.367577,-0.0504 2.367578,-0.0504 0.05037,-2.36758 0.05037,-2.36758 2.367578,-0.0504 2.367577,-0.0504 0.02708,-2.29201 c 0.01489,-1.26061 0.01489,-2.30278 0,-2.31594 -0.01489,-0.0132 -4.356723,-0.0472 -9.648511,-0.0756 l -9.621433,-0.0516 -0.02587,-7.14759 c -0.02014,-5.56452 -0.05361,-7.16519 -0.151122,-7.22712 -0.213851,-0.13581 -4.348827,-0.10055 -4.487642,0.0383 -0.08697,0.087 -0.120897,0.76608 -0.120897,2.41974 v 2.29885 l -2.443139,-0.027 -2.443138,-0.027 v -2.41795 -2.41795 l 2.367577,-0.0504 2.367578,-0.0504 0.02708,-2.29202 c 0.01489,-1.26061 0.01489,-2.30124 0,-2.31251 -0.01489,-0.0113 -1.092488,-0.0453 -2.394656,-0.0756 l -2.367577,-0.0551 -0.02713,-2.31246 c -0.0199,-1.69576 -0.0602,-2.33346 -0.151122,-2.39122 -0.212944,-0.13526 -4.348054,-0.0993 -4.486379,0.0391 -0.09232,0.0923 -0.120533,2.33674 -0.119355,9.4955 8.49e-4,5.15603 0.03699,9.4304 0.08031,9.49859 0.05776,0.0909 0.695457,0.13123 2.391221,0.15112 l 2.31246,0.0271 0.02698,2.44494 0.02698,2.44493 -2.444934,-0.027 -2.444934,-0.027 -0.02704,-2.34239 c -0.01487,-1.28832 -0.03754,-2.35162 -0.05037,-2.36289 -0.01283,-0.0113 -1.088741,-0.0453 -2.390908,-0.0756 l -2.367578,-0.0551 V 107.20474 92.697034 l 2.367578,-0.05037 2.367577,-0.05037 0.05037,-2.367577 0.05037,-2.367578 2.367578,-0.05037 2.367578,-0.05037 0.05037,-2.367578 0.05037,-2.367577 h 2.417951 2.417952 l 0.05506,2.367577 c 0.03028,1.302168 0.06429,2.379763 0.07556,2.394656 0.01128,0.01489 1.051908,0.01489 2.312518,0 l 2.292016,-0.02708 0.05037,-2.367578 0.05037,-2.367577 h 7.253855 7.253855 l 0.05506,2.367577 c 0.03028,1.302168 0.06428,2.379763 0.07556,2.394656 0.01127,0.01489 1.051907,0.01489 2.312517,0 l 2.292016,-0.02708 0.05037,-2.367578 0.05037,-2.367577 h 12.089763 12.08976 l 0.0551,2.367577 c 0.0303,1.302168 0.0643,2.378077 0.0756,2.390908 0.0113,0.01283 1.07458,0.0355 2.36289,0.05037 l 2.34239,0.02704 0.0529,4.785529 c 0.0291,2.632041 0.0631,4.797715 0.0756,4.812608 0.0125,0.01489 1.05412,0.01489 2.31473,0 l 2.29202,-0.02708 0.0504,-2.367578 0.0504,-2.367578 2.36758,-0.05037 2.36758,-0.05037 0.0271,-2.292016 c 0.0149,-1.26061 0.0149,-2.301242 0,-2.312517 -0.0149,-0.01128 -1.09249,-0.04528 -2.39466,-0.07556 l -2.36758,-0.05506 V 85.443191 83.02524 h 2.41796 2.41795 l 0.0551,2.367577 c 0.0303,1.302168 0.0643,2.378077 0.0756,2.390908 0.0113,0.01283 1.07458,0.0355 2.36289,0.05037 l 2.34239,0.02704 0.027,2.443139 0.027,2.443138 h -2.29885 c -1.65366,0 -2.33277,0.03393 -2.41974,0.120898 -0.13833,0.138325 -0.17432,4.273435 -0.0391,4.486379 0.0578,0.09092 0.69546,0.131226 2.39122,0.151122 l 2.31246,0.02713 0.027,2.443138 0.027,2.443131 h -2.29885 c -1.65366,0 -2.33277,0.0339 -2.41974,0.1209 -0.13833,0.13833 -0.17432,4.27344 -0.0391,4.48638 0.0578,0.0909 0.69546,0.13123 2.39122,0.15112 l 2.31246,0.0271 0.0257,9.697 0.0257,9.69699 h -2.29756 c -1.65265,0 -2.33149,0.0339 -2.41845,0.1209 -0.13833,0.13832 -0.17432,4.27343 -0.0391,4.48638 0.0578,0.0909 0.69546,0.13122 2.39122,0.15112 l 2.31246,0.0271 0.0551,2.36758 c 0.0303,1.30217 0.0643,2.37807 0.0756,2.39091 0.0113,0.0128 1.07458,0.0355 2.36289,0.0504 l 2.34239,0.027 0.0529,4.78553 c 0.0291,2.63204 0.0631,4.79772 0.0756,4.81261 0.0125,0.0149 1.05412,0.0149 2.31473,0 l 2.29202,-0.0271 0.0504,-2.36758 0.0504,-2.36757 2.36757,-0.0504 2.36758,-0.0504 0.0262,-4.70997 c 0.0144,-2.59048 0.0144,-4.72019 0,-4.73268 -0.0144,-0.0125 -2.17968,-0.0465 -4.81172,-0.0756 l -4.78553,-0.0528 v -4.8359 -4.83591 h 12.08976 12.08976 l 0.0529,4.78553 c 0.0291,2.63204 0.0631,4.79772 0.0756,4.81261 0.0125,0.0149 1.05412,0.0149 2.31473,0 l 2.29202,-0.0271 0.0504,-2.36758 0.0504,-2.36757 h 2.41796 2.41795 l 0.027,2.44314 0.027,2.44313 h -2.29884 c -1.65366,0 -2.33278,0.0339 -2.41974,0.1209 -0.0917,0.0917 -0.12053,1.79941 -0.11936,7.07755 8.5e-4,3.82615 0.037,7.01244 0.0803,7.08064 0.0577,0.0909 0.69545,0.13122 2.39122,0.15112 l 2.31246,0.0271 0.027,2.44314 0.027,2.44314 H 179.278 c -1.65366,0 -2.33278,0.0339 -2.41974,0.1209 -0.087,0.087 -0.1209,0.76568 -0.1209,2.41795 v 2.29705 h -2.29706 c -1.65226,0 -2.33099,0.0339 -2.41795,0.1209 -0.087,0.087 -0.1209,0.76568 -0.1209,2.41795 v 2.29705 h -2.29705 c -1.65227,0 -2.33099,0.0339 -2.41795,0.1209 -0.13833,0.13833 -0.17432,4.27344 -0.0391,4.48638 0.0578,0.0909 0.69546,0.13123 2.39122,0.15112 l 2.31246,0.0271 0.0551,2.36758 c 0.0303,1.30217 0.0643,2.37976 0.0756,2.39466 0.0113,0.0149 1.05191,0.0149 2.31252,0 l 2.29202,-0.0271 0.0504,-4.78553 0.0504,-4.78553 h 2.41796 2.41795 l 0.0262,4.86109 0.0262,4.86109 h -2.29803 c -1.65302,0 -2.33195,0.0339 -2.41891,0.1209 -0.13912,0.13911 -0.17667,9.10563 -0.0391,9.32228 0.0577,0.0909 0.69545,0.13123 2.39122,0.15112 l 2.31246,0.0271 0.0262,4.86109 0.0262,4.86109 h -2.29803 c -1.65302,0 -2.33195,0.0339 -2.41891,0.1209 -0.13833,0.13833 -0.17432,4.27344 -0.0391,4.48638 0.0577,0.0909 0.69545,0.13123 2.39122,0.15112 l 2.31246,0.0271 0.027,2.44494 0.027,2.44493 -2.44493,-0.027 -2.44494,-0.027 -0.0271,-2.31246 c -0.0199,-1.69577 -0.0602,-2.33347 -0.15112,-2.39122 -0.21294,-0.13527 -4.34805,-0.0993 -4.48638,0.039 -0.087,0.087 -0.1209,0.76569 -0.1209,2.41796 v 2.29705 h -2.29705 c -1.65227,0 -2.33099,0.0339 -2.41795,0.1209 -0.13833,0.13832 -0.17432,4.27343 -0.0391,4.48638 0.0578,0.0909 0.69546,0.13122 2.39122,0.15112 l 2.31246,0.0271 0.0551,2.36758 c 0.0303,1.30216 0.0643,2.37976 0.0756,2.39465 0.0113,0.0149 1.05191,0.0149 2.31252,0 l 2.29202,-0.0271 0.0504,-2.36757 0.0504,-2.36758 h 2.41796 2.41795 l 0.027,2.44314 0.027,2.44314 h -2.29884 c -1.65366,0 -2.33278,0.0339 -2.41974,0.12089 -0.087,0.087 -0.1209,0.76569 -0.1209,2.41796 v 2.29705 h -2.29706 c -1.65226,0 -2.33099,0.0339 -2.41795,0.1209 -0.087,0.087 -0.1209,0.76568 -0.1209,2.41795 v 2.29705 h -2.29705 c -1.65227,0 -2.33099,0.0339 -2.41795,0.1209 -0.13947,0.13947 -0.17375,4.27427 -0.0372,4.48934 0.0633,0.0998 1.08305,0.12134 4.7588,0.10075 l 4.67821,-0.0262 0.0504,-2.36757 0.0504,-2.36758 h 2.41796 2.41795 l 0.0262,4.86109 0.0262,4.86109 h -4.71598 c -3.53365,0 -4.74628,0.0303 -4.83687,0.1209 -0.13911,0.13911 -0.17667,9.10563 -0.0391,9.32228 0.0578,0.0909 0.69546,0.13123 2.39122,0.15112 l 2.31246,0.0271 0.027,2.44494 0.027,2.44493 -2.44494,-0.027 -2.44493,-0.027 -0.0271,-2.31246 c -0.0199,-1.69577 -0.0602,-2.33347 -0.15112,-2.39123 -0.0682,-0.0433 -3.25449,-0.0795 -7.08064,-0.0803 -5.27814,-0.001 -6.98582,0.0276 -7.07755,0.11935 -0.087,0.087 -0.1209,0.76609 -0.1209,2.41975 v 2.29884 l -2.44313,-0.027 -2.44314,-0.027 -0.0271,-2.31246 c -0.0199,-1.69577 -0.0602,-2.33347 -0.15113,-2.39123 -0.21294,-0.13526 -4.34805,-0.0993 -4.48637,0.0391 -0.087,0.087 -0.1209,0.7658 -0.1209,2.41846 v 2.29756 l -9.697,-0.0257 -9.69699,-0.0257 -0.027,-2.34239 c -0.0149,-1.28832 -0.0375,-2.35297 -0.0504,-2.3659 -0.0128,-0.0129 -3.26489,-0.0469 -7.22681,-0.0756 l -7.20348,-0.0521 v -2.41795 -2.41795 l 2.36758,-0.0504 2.36758,-0.0504 0.0271,-2.29202 c 0.0149,-1.2606 0.0149,-2.30124 0,-2.31251 -0.0149,-0.0113 -1.09248,-0.0453 -2.39465,-0.0756 l -2.36758,-0.0551 -0.0271,-2.31246 c -0.0199,-1.69577 -0.0602,-2.33347 -0.15112,-2.39123 -0.21295,-0.13526 -4.34806,-0.0993 -4.48638,0.0391 -0.0906,0.0906 -0.1209,1.30301 -0.1209,4.83591 v 4.715 h -2.29705 c -1.65227,0 -2.33099,0.0339 -2.41795,0.1209 -0.13833,0.13833 -0.17432,4.27344 -0.0391,4.48638 0.0577,0.0909 0.69545,0.13123 2.39122,0.15112 l 2.31246,0.0271 0.027,2.44314 0.027,2.44314 h -2.40295 c -1.32162,0 -2.43317,-0.0302 -2.47011,-0.0672 z m 43.43266,-7.21187 c 0.0149,-1.26061 0.0149,-2.3026 0,-2.31553 -0.0149,-0.0129 -3.26864,-0.0469 -7.23055,-0.0756 l -7.20349,-0.0521 -0.0262,-4.72983 c -0.0201,-3.63018 -0.0552,-4.74828 -0.15112,-4.80918 -0.21362,-0.13566 -4.34863,-0.10021 -4.48732,0.0385 -0.087,0.087 -0.1209,0.76569 -0.1209,2.41796 v 2.29705 h -2.29705 c -1.65227,0 -2.33099,0.0339 -2.41795,0.1209 -0.13833,0.13832 -0.17432,4.27343 -0.0391,4.48638 0.0578,0.0909 0.69546,0.13122 2.39122,0.15112 l 2.31246,0.0271 0.0551,2.36758 c 0.0303,1.30216 0.0643,2.37914 0.0756,2.39327 0.0113,0.0141 4.31615,0.0141 9.56637,0 l 9.54588,-0.0257 z m 9.6719,0.0324 c 0.0209,-1.74052 -0.002,-2.27831 -0.10075,-2.34085 -0.21576,-0.13694 -4.35046,-0.10321 -4.4903,0.0366 -0.12818,0.12818 -0.18129,4.13815 -0.059,4.45676 0.0546,0.14236 0.32875,0.15806 2.34239,0.13417 l 2.28052,-0.0271 z m 4.8359,-4.8359 c 0.0209,-1.74052 -0.002,-2.27832 -0.10075,-2.34085 -0.21576,-0.13694 -4.35045,-0.10322 -4.4903,0.0366 -0.12818,0.12818 -0.18129,4.13815 -0.059,4.45676 0.0546,0.14235 0.32875,0.15805 2.34239,0.13417 l 2.28053,-0.0271 z m -91.882164,-4.8359 c 0.02092,-1.74052 -0.0022,-2.27832 -0.100748,-2.34085 -0.215759,-0.13695 -4.350455,-0.10322 -4.490298,0.0366 -0.128178,0.12818 -0.181291,4.13816 -0.05903,4.45676 0.05463,0.14236 0.328747,0.15806 2.34239,0.13418 l 2.280524,-0.0271 z m 53.218144,-0.10792 0.0504,-2.36758 2.36758,-0.0504 2.36757,-0.0504 0.0272,-2.25966 c 0.0209,-1.74052 -0.002,-2.27831 -0.10075,-2.34085 -0.21939,-0.13924 -9.18554,-0.10403 -9.3262,0.0366 -0.0904,0.0904 -0.1209,1.2564 -0.1209,4.62617 0,2.4779 0.0278,4.57782 0.0619,4.66649 0.0546,0.14236 0.32874,0.15806 2.34239,0.13418 l 2.28052,-0.0271 z m 19.32041,0.10792 c 0.0209,-1.74052 -0.002,-2.27832 -0.10075,-2.34085 -0.21576,-0.13695 -4.35046,-0.10322 -4.4903,0.0366 -0.12818,0.12818 -0.18129,4.13816 -0.059,4.45676 0.0546,0.14236 0.32875,0.15806 2.34239,0.13418 l 2.28052,-0.0271 z m 14.50771,0 c 0.0209,-1.74052 -0.002,-2.27832 -0.10075,-2.34085 -0.21939,-0.13925 -9.18554,-0.10404 -9.3262,0.0366 -0.12797,0.12797 -0.18139,4.1379 -0.0594,4.45589 0.0553,0.14399 0.54103,0.15768 4.76034,0.13417 l 4.69881,-0.0262 z m -82.210361,-4.83591 c 0.02092,-1.74052 -0.0022,-2.27831 -0.100748,-2.34085 -0.215759,-0.13694 -4.350454,-0.10321 -4.490298,0.0366 -0.128178,0.12818 -0.181291,4.13815 -0.05903,4.45676 0.05463,0.14236 0.328747,0.15806 2.342391,0.13417 l 2.280523,-0.0271 z m 62.866741,0 c 0.0209,-1.74052 -0.002,-2.27831 -0.10075,-2.34085 -0.21576,-0.13694 -4.35045,-0.10321 -4.49029,0.0366 -0.12818,0.12818 -0.1813,4.13815 -0.059,4.45676 0.0546,0.14236 0.32874,0.15806 2.34239,0.13417 l 2.28052,-0.0271 z m -4.8359,-4.8359 c 0.0209,-1.74052 -0.002,-2.27832 -0.10075,-2.34085 -0.21576,-0.13694 -4.35045,-0.10322 -4.4903,0.0366 -0.12818,0.12818 -0.18129,4.13815 -0.059,4.45676 0.0546,0.14235 0.32875,0.15805 2.34239,0.13417 l 2.28053,-0.0271 z m 24.17823,-4.8367 c 0.0205,-5.61042 -6.5e-4,-7.1132 -0.10075,-7.17675 -0.0696,-0.0442 -3.25712,-0.0811 -7.08327,-0.0819 -5.27814,-0.001 -6.98582,0.0276 -7.07755,0.11935 -0.0917,0.0917 -0.1209,1.79372 -0.1209,7.04412 0,3.80777 0.0276,6.99524 0.0614,7.08326 0.0554,0.14446 0.75383,0.15751 7.17829,0.13417 l 7.11688,-0.0259 z m -9.60205,2.28346 c -0.027,-0.0705 -0.0369,-1.16987 -0.022,-2.44313 l 0.0271,-2.31503 h 2.41796 2.41795 l 0.027,2.44314 0.027,2.44314 h -2.4229 c -1.86738,0 -2.43418,-0.0294 -2.47207,-0.12812 z m -62.935214,-2.28266 c 0.02092,-1.74052 -0.0022,-2.27832 -0.100748,-2.34085 -0.215759,-0.13695 -4.350455,-0.10322 -4.490298,0.0366 -0.128179,0.12818 -0.181291,4.13816 -0.05903,4.45676 0.05463,0.14236 0.328746,0.15806 2.34239,0.13418 l 2.280523,-0.0271 z m 33.851324,0 c 0.0209,-1.74052 -0.002,-2.27832 -0.10075,-2.34085 -0.21576,-0.13695 -4.35045,-0.10322 -4.4903,0.0366 -0.12818,0.12818 -0.18129,4.13816 -0.059,4.45676 0.0546,0.14236 0.32875,0.15806 2.34239,0.13418 l 2.28053,-0.0271 z m 9.69502,-0.10792 0.0504,-2.36758 2.36758,-0.0504 2.36758,-0.0504 0.0271,-2.29201 c 0.0149,-1.26061 0.0149,-2.30124 0,-2.31252 -0.0149,-0.0113 -1.09248,-0.0453 -2.39465,-0.0756 l -2.36758,-0.0551 -0.0271,-2.31246 c -0.0199,-1.69576 -0.0602,-2.33346 -0.15112,-2.39122 -0.21665,-0.13762 -9.18317,-0.10006 -9.32228,0.0391 -0.13833,0.13832 -0.17432,4.27343 -0.0391,4.48638 0.0577,0.0909 0.69545,0.13122 2.39122,0.15112 l 2.31246,0.0271 0.0528,4.78553 c 0.0291,2.63204 0.0631,4.79771 0.0756,4.81261 0.0125,0.0149 1.05413,0.0149 2.31474,0 l 2.29201,-0.0271 z m 38.66305,-2.31063 c 0.0206,-3.67575 -9.9e-4,-4.69547 -0.10074,-4.7588 -0.21508,-0.13653 -4.34987,-0.10225 -4.48934,0.0372 -0.0904,0.0904 -0.1209,1.2564 -0.1209,4.62617 0,2.4779 0.0278,4.57782 0.0619,4.66649 0.0546,0.14236 0.32874,0.15806 2.34239,0.13418 l 2.28052,-0.0271 z M 89.566339,206.3983 c 0.02092,-1.74052 -0.0022,-2.27831 -0.100748,-2.34085 -0.215759,-0.13694 -4.350455,-0.10321 -4.490298,0.0366 -0.128178,0.12818 -0.181291,4.13815 -0.05903,4.45676 0.05463,0.14236 0.328747,0.15806 2.342391,0.13417 l 2.280523,-0.0271 z m 9.671807,0 c 0.02092,-1.74052 -0.0022,-2.27831 -0.100748,-2.34085 -0.215759,-0.13694 -4.350455,-0.10321 -4.490298,0.0366 -0.128179,0.12818 -0.181291,4.13815 -0.05903,4.45676 0.05463,0.14236 0.328747,0.15806 2.342391,0.13417 l 2.280523,-0.0271 z m 4.859114,-4.94382 0.0504,-2.36757 4.78553,-0.0504 4.78553,-0.0504 0.0504,-2.36758 0.0504,-2.36758 2.36758,-0.0504 2.36758,-0.0504 0.0504,-2.36757 0.0504,-2.36758 2.36758,-0.0504 2.36758,-0.0504 0.0504,-2.36758 0.0504,-2.36757 2.36758,-0.0504 2.36757,-0.0504 0.0272,-2.25966 c 0.0209,-1.74052 -0.002,-2.27832 -0.10075,-2.34085 -0.21939,-0.13925 -9.18554,-0.10404 -9.3262,0.0366 -0.087,0.087 -0.1209,0.76569 -0.1209,2.41796 v 2.29705 h -2.29706 c -1.65226,0 -2.33099,0.0339 -2.41795,0.1209 -0.087,0.087 -0.12089,0.76568 -0.12089,2.41795 v 2.29705 h -4.71501 c -3.5329,0 -4.74532,0.0303 -4.8359,0.1209 -0.087,0.087 -0.1209,0.76569 -0.1209,2.41795 v 2.29706 h -2.29706 c -1.65226,0 -2.330986,0.0339 -2.417947,0.12089 -0.09043,0.0904 -0.120898,1.2564 -0.120898,4.62617 0,2.4779 0.02784,4.57782 0.06187,4.6665 0.05463,0.14235 0.328746,0.15805 2.342385,0.13417 l 2.28053,-0.0271 z M 84.730436,196.7265 c 0.02092,-1.74052 -0.0022,-2.27832 -0.100748,-2.34085 -0.219392,-0.13925 -9.185539,-0.10404 -9.326202,0.0366 -0.127966,0.12797 -0.18139,4.1379 -0.05936,4.45589 0.05525,0.14399 0.541029,0.15768 4.760343,0.13417 l 4.698809,-0.0262 z m 58.030844,0 c 0.0209,-1.74052 -0.002,-2.27832 -0.10075,-2.34085 -0.21576,-0.13695 -4.35046,-0.10322 -4.4903,0.0366 -0.12818,0.12818 -0.18129,4.13816 -0.059,4.45676 0.0546,0.14236 0.32875,0.15806 2.34239,0.13418 l 2.28052,-0.027 z m -91.882167,-4.83591 c 0.02092,-1.74052 -0.0022,-2.27831 -0.100748,-2.34085 -0.07035,-0.0447 -3.258402,-0.0819 -7.084559,-0.0827 -5.278139,-0.001 -6.985818,0.0276 -7.077546,0.11935 -0.127889,0.12789 -0.181426,4.1378 -0.05949,4.45557 0.05544,0.14446 0.753833,0.15752 7.178294,0.13417 l 7.116883,-0.0259 z m 24.202728,-0.10791 0.05037,-2.36758 2.367578,-0.0504 2.367577,-0.0504 0.05037,-2.36758 0.05037,-2.36757 4.785529,-0.0504 4.78553,-0.0504 0.05037,-2.36758 0.05037,-2.36758 2.367577,-0.0504 2.367578,-0.0504 0.02716,-2.25967 c 0.02092,-1.74052 -0.0022,-2.27831 -0.100748,-2.34085 -0.219392,-0.13924 -9.18554,-0.10403 -9.326202,0.0366 -0.08697,0.087 -0.120898,0.76608 -0.120898,2.41974 v 2.29885 l -2.443138,-0.027 -2.443139,-0.027 v -2.41795 -2.41795 l 2.367578,-0.0504 2.367577,-0.0504 0.02708,-2.29201 c 0.01489,-1.26061 0.01489,-2.30125 0,-2.31252 -0.01489,-0.0113 -1.092488,-0.0453 -2.394656,-0.0756 l -2.367578,-0.0551 -0.0262,-4.72984 c -0.02011,-3.63017 -0.05524,-4.74828 -0.151122,-4.80917 -0.213615,-0.13567 -4.348626,-0.10022 -4.487314,0.0385 -0.09059,0.0906 -0.120897,1.30301 -0.120897,4.8359 v 4.71501 h -2.297054 c -1.652267,0 -2.33099,0.0339 -2.417952,0.1209 -0.13911,0.13911 -0.176669,9.10563 -0.03905,9.32228 0.05776,0.0909 0.695457,0.13123 2.391222,0.15112 l 2.312459,0.0271 0.02698,2.44494 0.02698,2.44493 -2.444934,-0.027 -2.444933,-0.027 -0.02713,-2.31246 c -0.0199,-1.69577 -0.0602,-2.33347 -0.151122,-2.39122 -0.212944,-0.13527 -4.348054,-0.0993 -4.486379,0.039 -0.09169,0.0917 -0.120898,1.79373 -0.120898,7.04412 0,3.80778 0.02769,6.99538 0.06153,7.08358 0.05525,0.14398 0.541029,0.15768 4.760342,0.13417 l 4.69881,-0.0262 z m 19.319444,-2.31063 c 0.02059,-3.67575 -9.98e-4,-4.69548 -0.100748,-4.7588 -0.215072,-0.13653 -4.349868,-0.10226 -4.489341,0.0372 -0.09043,0.0904 -0.120897,1.2564 -0.120897,4.62617 0,2.47789 0.02784,4.57782 0.06187,4.66649 0.05463,0.14236 0.328747,0.15806 2.342391,0.13417 l 2.280523,-0.0271 z m 43.524085,2.41854 c 0.0209,-1.74052 -0.002,-2.27831 -0.10075,-2.34085 -0.21576,-0.13694 -4.35045,-0.10321 -4.49029,0.0366 -0.12818,0.12818 -0.1813,4.13815 -0.059,4.45676 0.0546,0.14236 0.32874,0.15806 2.34239,0.13417 l 2.28052,-0.0271 z m 14.50771,0 c 0.0209,-1.74052 -0.002,-2.27831 -0.10075,-2.34085 -0.21576,-0.13694 -4.35045,-0.10321 -4.49029,0.0366 -0.12818,0.12818 -0.1813,4.13815 -0.059,4.45676 0.0546,0.14236 0.32874,0.15806 2.34239,0.13417 l 2.28052,-0.0271 z m 14.50763,-0.0324 c 0.0149,-1.26061 0.0149,-2.30124 0,-2.31252 -0.0149,-0.0113 -1.09249,-0.0453 -2.39466,-0.0756 l -2.36758,-0.0551 -0.0271,-2.31246 c -0.0199,-1.69576 -0.0602,-2.33346 -0.15112,-2.39122 -0.21665,-0.13762 -9.18317,-0.10006 -9.32228,0.0391 -0.13833,0.13832 -0.17432,4.27343 -0.0391,4.48638 0.0578,0.0909 0.69546,0.13122 2.39122,0.15112 l 2.31246,0.0271 0.0551,2.36758 c 0.0303,1.30217 0.0643,2.37936 0.0756,2.39376 0.0113,0.0144 2.13999,0.0144 4.73047,0 l 4.70997,-0.0262 z m -106.38979,-4.8035 c 0.02092,-1.74052 -0.0022,-2.27832 -0.100748,-2.34085 -0.219392,-0.13925 -9.185539,-0.10403 -9.326202,0.0366 -0.127966,0.12796 -0.18139,4.13789 -0.05936,4.45588 0.05525,0.14399 0.541029,0.15768 4.760342,0.13418 l 4.69881,-0.0262 z m 43.52313,0 c 0.0209,-1.74052 -0.002,-2.27832 -0.10075,-2.34085 -0.21576,-0.13694 -4.350454,-0.10322 -4.490297,0.0366 -0.128179,0.12818 -0.181291,4.13815 -0.05903,4.45676 0.05463,0.14235 0.328746,0.15805 2.342387,0.13417 l 2.28053,-0.0271 z m 29.01542,0 c 0.0209,-1.74052 -0.002,-2.27832 -0.10075,-2.34085 -0.21576,-0.13694 -4.35045,-0.10322 -4.4903,0.0366 -0.12818,0.12818 -0.18129,4.13815 -0.059,4.45676 0.0546,0.14235 0.32875,0.15805 2.34239,0.13417 l 2.28053,-0.0271 z m 14.50771,0 c 0.0209,-1.74052 -0.002,-2.27832 -0.10075,-2.34085 -0.21939,-0.13925 -9.18554,-0.10403 -9.3262,0.0366 -0.12797,0.12796 -0.18139,4.13789 -0.0594,4.45588 0.0553,0.14399 0.54103,0.15768 4.76035,0.13418 l 4.69881,-0.0262 z m 29.01446,-2.41854 c 0.0206,-3.67576 -0.001,-4.69548 -0.10075,-4.7588 -0.21872,-0.13885 -9.18496,-0.10307 -9.32524,0.0372 -0.13833,0.13833 -0.17432,4.27344 -0.0391,4.48638 0.0578,0.0909 0.69546,0.13123 2.39122,0.15113 l 2.31246,0.0271 0.0551,2.36757 c 0.0303,1.30217 0.0643,2.37977 0.0756,2.39466 0.0113,0.0149 1.05191,0.0149 2.31252,0 l 2.29202,-0.0271 z M 50.879113,182.21879 c 0.02092,-1.74052 -0.0022,-2.27832 -0.100748,-2.34085 -0.215759,-0.13695 -4.350455,-0.10322 -4.490298,0.0366 -0.128178,0.12818 -0.181291,4.13816 -0.05903,4.45676 0.05463,0.14236 0.328746,0.15806 2.34239,0.13418 l 2.280524,-0.0271 z m 48.359033,0 c 0.02092,-1.74052 -0.0022,-2.27832 -0.100748,-2.34085 -0.215759,-0.13695 -4.350455,-0.10322 -4.490298,0.0366 -0.128179,0.12818 -0.181291,4.13816 -0.05903,4.45676 0.05463,0.14236 0.328747,0.15806 2.342391,0.13418 l 2.280523,-0.0271 z m 14.507714,0 c 0.0209,-1.74052 -0.002,-2.27832 -0.10075,-2.34085 -0.21939,-0.13925 -9.18554,-0.10404 -9.3262,0.0366 -0.12797,0.12797 -0.18139,4.1379 -0.0594,4.45589 0.0553,0.14399 0.54103,0.15768 4.76034,0.13417 l 4.69881,-0.0262 z m 24.17951,0 c 0.0209,-1.74052 -0.002,-2.27832 -0.10075,-2.34085 -0.21576,-0.13695 -4.35045,-0.10322 -4.49029,0.0366 -0.12818,0.12818 -0.1813,4.13816 -0.059,4.45676 0.0546,0.14236 0.32874,0.15806 2.34239,0.13418 l 2.28052,-0.0271 z m 14.50675,-2.41855 c 0.0206,-3.67575 -9.9e-4,-4.69547 -0.10074,-4.7588 -0.21508,-0.13653 -4.34987,-0.10225 -4.48934,0.0372 -0.0904,0.0904 -0.1209,1.2564 -0.1209,4.62617 0,2.4779 0.0278,4.57782 0.0619,4.66649 0.0546,0.14236 0.32874,0.15806 2.34239,0.13418 l 2.28052,-0.0271 z M 36.371403,177.38288 c 0.02092,-1.74052 -0.0022,-2.27831 -0.100748,-2.34085 -0.215759,-0.13694 -4.350455,-0.10321 -4.490298,0.0366 -0.128178,0.12818 -0.181291,4.13815 -0.05903,4.45676 0.05463,0.14236 0.328747,0.15806 2.342391,0.13417 l 2.280523,-0.027 z m 19.343613,0 c 0.02092,-1.74052 -0.0022,-2.27831 -0.100748,-2.34085 -0.215759,-0.13694 -4.350455,-0.10321 -4.490298,0.0366 -0.128178,0.12818 -0.181291,4.13815 -0.05903,4.45676 0.05463,0.14236 0.328747,0.15806 2.342391,0.13417 l 2.280523,-0.027 z m 9.67085,-2.41854 c 0.02059,-3.67575 -9.99e-4,-4.69548 -0.100748,-4.7588 -0.218722,-0.13885 -9.184961,-0.10307 -9.325245,0.0372 -0.138325,0.13832 -0.174317,4.27343 -0.03905,4.48638 0.05776,0.0909 0.695458,0.13122 2.391222,0.15112 l 2.312459,0.0271 0.05506,2.36758 c 0.03028,1.30217 0.06428,2.37976 0.07556,2.39465 0.01127,0.0149 1.051908,0.0149 2.312517,0 l 2.292016,-0.0271 z m 77.374454,0 c 0.0206,-3.67575 -0.001,-4.69548 -0.10075,-4.7588 -0.21872,-0.13885 -9.18496,-0.10307 -9.32524,0.0372 -0.13833,0.13832 -0.17432,4.27343 -0.0391,4.48638 0.0577,0.0909 0.69545,0.13122 2.39122,0.15112 l 2.31246,0.0271 0.0551,2.36758 c 0.0303,1.30217 0.0643,2.37976 0.0756,2.39465 0.0113,0.0149 1.05191,0.0149 2.31252,0 l 2.29201,-0.0271 z m -14.48354,-2.52528 0.0504,-2.36757 2.36758,-0.0504 2.36758,-0.0504 0.0271,-2.29202 c 0.0149,-1.26061 0.0149,-2.30124 0,-2.31252 -0.0149,-0.0113 -1.09248,-0.0453 -2.39465,-0.0756 l -2.36758,-0.0551 -0.0271,-2.31246 c -0.0199,-1.69576 -0.0602,-2.33346 -0.15112,-2.39122 -0.21665,-0.13762 -9.18317,-0.10006 -9.32228,0.0391 -0.13833,0.13833 -0.17432,4.27344 -0.0391,4.48638 0.0577,0.0909 0.69545,0.13123 2.39122,0.15112 l 2.31246,0.0271 0.0528,4.78553 c 0.0291,2.63204 0.0631,4.79772 0.0756,4.81261 0.0125,0.0149 1.05413,0.0149 2.31474,0 l 2.29201,-0.0271 z m 38.66401,0.10792 c 0.0209,-1.74052 -0.002,-2.27832 -0.10075,-2.34085 -0.21576,-0.13694 -4.35045,-0.10322 -4.49029,0.0366 -0.12818,0.12818 -0.1813,4.13815 -0.059,4.45676 0.0546,0.14235 0.32874,0.15805 2.34239,0.13417 l 2.28052,-0.0271 z M 55.714932,167.67872 c 0.01489,-1.26061 0.01489,-2.30124 0,-2.31252 -0.01489,-0.0113 -1.092488,-0.0453 -2.394656,-0.0756 l -2.367577,-0.0551 -0.02713,-2.31246 c -0.0199,-1.69576 -0.0602,-2.33346 -0.151122,-2.39122 -0.212944,-0.13527 -4.348054,-0.0993 -4.486379,0.0391 -0.09043,0.0904 -0.120898,1.2564 -0.120898,4.62617 0,2.4779 0.02769,4.57743 0.06153,4.66562 0.05525,0.14399 0.541029,0.15768 4.760342,0.13417 l 4.69881,-0.0262 z m 106.389958,0.0324 c 0.0209,-1.74052 -0.002,-2.27832 -0.10075,-2.34085 -0.21576,-0.13694 -4.35045,-0.10322 -4.4903,0.0366 -0.12818,0.12818 -0.18129,4.13816 -0.059,4.45676 0.0546,0.14236 0.32875,0.15806 2.34239,0.13418 l 2.28053,-0.0271 z m -9.67181,-4.83591 c 0.0209,-1.74052 -0.002,-2.27831 -0.10075,-2.34085 -0.21576,-0.13694 -4.35045,-0.10321 -4.49029,0.0366 -0.12818,0.12818 -0.1813,4.13815 -0.059,4.45676 0.0546,0.14236 0.32874,0.15806 2.34239,0.13417 l 2.28052,-0.027 z M 137.92439,155.589 c 0.0144,-2.59048 0.0144,-4.71919 0,-4.73046 -0.0144,-0.0113 -1.09159,-0.0453 -2.39376,-0.0756 l -2.36758,-0.0551 -0.0271,-2.31246 c -0.0199,-1.69576 -0.0602,-2.33346 -0.15112,-2.39122 -0.21294,-0.13527 -4.34805,-0.0993 -4.48638,0.0391 -0.087,0.087 -0.1209,0.76569 -0.1209,2.41795 v 2.29706 h -4.715 c -3.5329,0 -4.74532,0.0303 -4.8359,0.1209 -0.13882,0.13881 -0.17408,4.27379 -0.0383,4.48764 0.0619,0.0975 1.6626,0.13098 7.22712,0.15112 l 7.14758,0.0259 0.0551,2.36757 c 0.0303,1.30217 0.0643,2.37977 0.0756,2.39466 0.0113,0.0149 1.0519,0.0149 2.31251,0 l 2.29202,-0.0271 z m 19.36781,-0.0756 0.0504,-4.78553 2.36758,-0.0504 2.36758,-0.0504 0.0272,-2.25967 c 0.0209,-1.74052 -0.002,-2.27831 -0.10075,-2.34085 -0.21939,-0.13924 -9.18554,-0.10403 -9.3262,0.0366 -0.0917,0.0917 -0.1209,1.79372 -0.1209,7.04412 0,3.80777 0.0278,6.99577 0.0619,7.08445 0.0546,0.14235 0.32875,0.15805 2.34239,0.13417 l 2.28052,-0.027 z m 14.48321,-7.14673 c 0.0205,-5.61043 -6.5e-4,-7.1132 -0.10075,-7.17676 -0.21484,-0.13639 -4.34967,-0.10192 -4.48901,0.0374 -0.0906,0.0906 -0.1209,1.30301 -0.1209,4.8359 v 4.71501 h -2.29705 c -1.65227,0 -2.33099,0.0339 -2.41795,0.1209 -0.12797,0.12796 -0.18139,4.13789 -0.0594,4.45588 0.0553,0.14399 0.54103,0.15768 4.76034,0.13417 l 4.69881,-0.0262 z m -125.7322,7.9e-4 c 0.02092,-1.74052 -0.0022,-2.27831 -0.100748,-2.34085 -0.215759,-0.13694 -4.350455,-0.10321 -4.490298,0.0366 -0.128179,0.12818 -0.181291,4.13815 -0.05903,4.45676 0.05463,0.14236 0.328747,0.15806 2.342391,0.13417 l 2.280523,-0.027 z m 101.55388,-0.0324 c 0.0149,-1.26061 0.0149,-2.30124 0,-2.31252 -0.0149,-0.0113 -1.09248,-0.0453 -2.39465,-0.0756 l -2.36758,-0.0551 -0.0262,-4.72983 c -0.0201,-3.63017 -0.0552,-4.74828 -0.15112,-4.80918 -0.21361,-0.13566 -4.34862,-0.10021 -4.48731,0.0385 -0.0917,0.0917 -0.1209,1.79372 -0.1209,7.04411 0,3.80778 0.0277,6.99538 0.0615,7.08358 0.0553,0.14398 0.54103,0.15768 4.76035,0.13417 l 4.69881,-0.0262 z m -38.66393,-4.91147 0.0504,-2.36757 2.36758,-0.0504 2.36757,-0.0504 0.0271,-2.29202 c 0.0149,-1.26061 0.0149,-2.30124 0,-2.31251 -0.0149,-0.0113 -1.09249,-0.0453 -2.39465,-0.0756 l -2.36758,-0.0551 -0.0262,-4.72983 c -0.0201,-3.63017 -0.0552,-4.74828 -0.15112,-4.80917 -0.21362,-0.13567 -4.34863,-0.10022 -4.48731,0.0385 -0.0906,0.0906 -0.1209,1.30301 -0.1209,4.8359 v 4.71501 h -2.29706 c -1.65226,0 -2.330986,0.0339 -2.417947,0.1209 -0.09043,0.0904 -0.120898,1.25639 -0.120898,4.62616 0,2.4779 0.02769,4.57743 0.06153,4.66562 0.05525,0.14399 0.541029,0.15768 4.760345,0.13418 l 4.69881,-0.0262 z m 19.32032,0.0756 c 0.0149,-1.26061 0.0149,-2.30125 0,-2.31252 -0.0149,-0.0113 -1.09249,-0.0453 -2.39465,-0.0756 l -2.36758,-0.0551 -0.0271,-2.31246 c -0.0199,-1.69577 -0.0602,-2.33347 -0.15113,-2.39122 -0.21294,-0.13527 -4.34805,-0.0993 -4.48637,0.039 -0.0904,0.0904 -0.1209,1.25639 -0.1209,4.62616 0,2.4779 0.0277,4.57743 0.0615,4.66562 0.0553,0.14399 0.54103,0.15768 4.76034,0.13418 l 4.69881,-0.0262 z m -9.67172,-9.63946 c 0.0209,-1.74052 -0.002,-2.27831 -0.10075,-2.34085 -0.21576,-0.13694 -4.35045,-0.10321 -4.4903,0.0366 -0.12818,0.12818 -0.18129,4.13815 -0.059,4.45676 0.0546,0.14236 0.32875,0.15806 2.34239,0.13417 l 2.28053,-0.027 z m 19.34361,0 c 0.0209,-1.74052 -0.002,-2.27831 -0.10075,-2.34085 -0.21576,-0.13694 -4.35045,-0.10321 -4.49029,0.0366 -0.12818,0.12818 -0.1813,4.13815 -0.059,4.45676 0.0546,0.14236 0.32874,0.15806 2.34239,0.13417 l 2.28052,-0.027 z m 29.01542,0 c 0.0209,-1.74052 -0.002,-2.27831 -0.10075,-2.34085 -0.21576,-0.13694 -4.35045,-0.10321 -4.49029,0.0366 -0.12818,0.12818 -0.1813,4.13815 -0.059,4.45676 0.0546,0.14236 0.32874,0.15806 2.34239,0.13417 l 2.28052,-0.027 z m -111.225774,-4.8359 c 0.02092,-1.74052 -0.0022,-2.27832 -0.100748,-2.34085 -0.07035,-0.0447 -3.258402,-0.0819 -7.084558,-0.0827 -5.27814,-0.001 -6.985819,0.0276 -7.077546,0.11936 -0.12789,0.12789 -0.181427,4.1378 -0.05949,4.45557 0.05544,0.14446 0.753834,0.15752 7.178294,0.13417 l 7.116883,-0.0259 z m 67.725854,-0.10792 0.0504,-2.36757 2.36758,-0.0504 2.36757,-0.0504 0.0271,-2.29202 c 0.0149,-1.26061 0.0149,-2.30124 0,-2.31251 -0.0149,-0.0113 -1.09249,-0.0453 -2.39465,-0.0756 l -2.36758,-0.0551 -0.027,-2.34239 c -0.0149,-1.28831 -0.0375,-2.35161 -0.0504,-2.36289 -0.0128,-0.0113 -1.08874,-0.0453 -2.39091,-0.0756 l -2.36758,-0.0551 v -4.8359 -4.83591 l 2.36758,-0.0504 2.36758,-0.0504 0.0272,-2.25967 c 0.0209,-1.74052 -0.002,-2.27831 -0.10075,-2.34084 -0.21939,-0.13925 -9.18553,-0.10404 -9.3262,0.0366 -0.0918,0.0918 -0.12089,1.84073 -0.12089,7.25565 v 7.13475 l -2.44314,-0.027 -2.44314,-0.027 -0.0271,-2.31246 c -0.0199,-1.69576 -0.0602,-2.33346 -0.15113,-2.39122 -0.21294,-0.13527 -4.34805,-0.0993 -4.48637,0.0391 -0.087,0.087 -0.1209,0.76568 -0.1209,2.41795 v 2.29705 h -2.29706 c -1.65226,0 -2.330986,0.0339 -2.417947,0.1209 -0.140663,0.14066 -0.175876,9.10681 -0.03663,9.3262 0.06253,0.0985 0.600327,0.12167 2.340847,0.10075 l 2.25967,-0.0272 0.0504,-2.36758 0.0504,-2.36758 h 2.41796 2.41795 l 0.0551,2.36758 c 0.0303,1.30217 0.0643,2.37847 0.0756,2.39178 0.0113,0.0133 2.16265,0.036 4.78084,0.0504 l 4.76034,0.0262 0.0551,2.36757 c 0.0303,1.30217 0.0643,2.37977 0.0756,2.39466 0.0113,0.0149 1.0519,0.0149 2.31251,0 l 2.29202,-0.0271 z m 9.6486,0.10792 c 0.0209,-1.74052 -0.002,-2.27832 -0.10075,-2.34085 -0.21576,-0.13694 -4.35045,-0.10321 -4.4903,0.0366 -0.12818,0.12818 -0.18129,4.13815 -0.059,4.45676 0.0546,0.14235 0.32875,0.15806 2.34239,0.13417 l 2.28053,-0.0271 z m 29.01542,0 c 0.0209,-1.74052 -0.002,-2.27832 -0.10075,-2.34085 -0.21576,-0.13694 -4.35045,-0.10321 -4.4903,0.0366 -0.12818,0.12818 -0.18129,4.13815 -0.059,4.45676 0.0546,0.14235 0.32875,0.15806 2.34239,0.13417 l 2.28053,-0.0271 z m -24.18098,-12.09066 c 0.0204,-7.54494 -4.7e-4,-9.53104 -0.10074,-9.5947 -0.21838,-0.13865 -9.18466,-0.10256 -9.32475,0.0375 -0.13832,0.13832 -0.17431,4.27343 -0.0391,4.48637 0.0578,0.0909 0.69546,0.13123 2.39122,0.15113 l 2.31246,0.0271 0.0521,7.20348 c 0.0286,3.96191 0.0626,7.21566 0.0756,7.23056 0.0129,0.0149 1.05491,0.0149 2.31552,0 l 2.29202,-0.0271 z m -43.521752,2.3865 c 0.01489,-1.26061 0.01489,-2.30124 0,-2.31252 -0.01489,-0.0113 -1.092488,-0.0453 -2.394656,-0.0756 l -2.367577,-0.0551 v -4.8359 -4.83591 l 2.367577,-0.0504 2.367578,-0.0504 0.02708,-2.29202 c 0.01489,-1.26061 0.01489,-2.30124 0,-2.31252 -0.01489,-0.0113 -1.092488,-0.0453 -2.394656,-0.0756 l -2.367577,-0.0551 -0.02713,-2.31246 c -0.0199,-1.695763 -0.0602,-2.333462 -0.151122,-2.39122 -0.212944,-0.135268 -4.348054,-0.09928 -4.486379,0.03905 -0.08696,0.08696 -0.120898,0.765685 -0.120898,2.41795 v 2.29705 h -2.297054 c -1.652267,0 -2.33099,0.0339 -2.417951,0.1209 -0.139111,0.13911 -0.17667,9.10564 -0.03905,9.32228 0.05776,0.0909 0.695458,0.13123 2.391222,0.15113 l 2.312459,0.0271 0.05285,4.78553 c 0.02906,2.63204 0.06307,4.79731 0.07556,4.81171 0.01249,0.0144 2.142201,0.0144 4.732684,0 l 4.709968,-0.0262 z m 4.835988,-4.80355 c 0.02092,-1.74052 -0.0022,-2.27831 -0.100748,-2.34085 -0.215759,-0.13694 -4.350455,-0.10321 -4.490298,0.0366 -0.128179,0.12818 -0.181291,4.13815 -0.05903,4.45676 0.05463,0.14235 0.328747,0.15806 2.342391,0.13417 l 2.280523,-0.0271 z m 29.015424,0 c 0.0209,-1.74052 -0.002,-2.27831 -0.10075,-2.34085 -0.21576,-0.13694 -4.35046,-0.10321 -4.4903,0.0366 -0.12818,0.12818 -0.18129,4.13815 -0.059,4.45676 0.0546,0.14235 0.32875,0.15806 2.34239,0.13417 l 2.28052,-0.0271 z m -19.32041,-9.77972 0.0504,-2.36758 2.36758,-0.0504 2.36757,-0.0504 0.0272,-2.25966 c 0.0209,-1.740519 -0.002,-2.278315 -0.10075,-2.340848 -0.21939,-0.139248 -9.18554,-0.104035 -9.3262,0.03663 -0.087,0.08696 -0.1209,0.765685 -0.1209,2.417948 v 2.29705 H 101.901 c -1.65226,0 -2.330986,0.0339 -2.417947,0.1209 -0.127967,0.12797 -0.18139,4.1379 -0.05936,4.45589 0.05525,0.14398 0.541029,0.15768 4.760347,0.13417 l 4.69881,-0.0262 z M 75.057672,97.589887 c 0.02059,-3.675751 -9.98e-4,-4.695476 -0.100748,-4.7588 -0.218722,-0.13885 -9.184961,-0.103065 -9.325244,0.03722 -0.138325,0.138325 -0.174317,4.273435 -0.03905,4.486379 0.05776,0.09092 0.695457,0.131226 2.391221,0.151122 l 2.31246,0.02713 0.05506,2.367577 c 0.03028,1.302165 0.06429,2.379765 0.07556,2.394655 0.01127,0.0149 1.051908,0.0149 2.312517,0 l 2.292017,-0.0271 z m 24.180474,2.418543 c 0.02092,-1.740519 -0.0022,-2.278315 -0.100748,-2.340848 -0.215759,-0.136943 -4.350455,-0.103216 -4.490298,0.03663 -0.128179,0.128178 -0.181291,4.138148 -0.05903,4.456758 0.05463,0.14235 0.328747,0.15806 2.342391,0.13417 l 2.280523,-0.0271 z m 29.015424,0 c 0.0209,-1.740519 -0.002,-2.278315 -0.10075,-2.340848 -0.21576,-0.136943 -4.35046,-0.103216 -4.4903,0.03663 -0.12818,0.128178 -0.18129,4.138148 -0.059,4.456758 0.0546,0.14235 0.32875,0.15806 2.34239,0.13417 l 2.28052,-0.0271 z m 9.6718,0 c 0.0209,-1.740519 -0.002,-2.278315 -0.10075,-2.340848 -0.21576,-0.136943 -4.35045,-0.103216 -4.49029,0.03663 -0.12818,0.128178 -0.1813,4.138148 -0.059,4.456758 0.0546,0.14235 0.32874,0.15806 2.34239,0.13417 l 2.28052,-0.0271 z M 84.729479,92.753984 c 0.02059,-3.675751 -9.99e-4,-4.695476 -0.100748,-4.7588 -0.215072,-0.136534 -4.349868,-0.102254 -4.489341,0.03722 -0.09043,0.09043 -0.120898,1.256399 -0.120898,4.626167 0,2.477898 0.02784,4.577821 0.06187,4.666494 0.05463,0.142356 0.328746,0.158058 2.34239,0.134175 l 2.280523,-0.02705 z m 9.672764,2.418543 c 0.02092,-1.740519 -0.0022,-2.278315 -0.100748,-2.340848 -0.21576,-0.136943 -4.350455,-0.103217 -4.490299,0.03663 -0.128178,0.128178 -0.181291,4.138152 -0.05903,4.456758 0.05463,0.142356 0.328747,0.158058 2.342391,0.134175 l 2.280523,-0.02705 z m 29.015417,-4.835904 c 0.0209,-1.740519 -0.002,-2.278314 -0.10075,-2.340847 -0.0703,-0.04465 -3.2584,-0.08188 -7.08455,-0.08273 -5.27814,-0.0012 -6.98582,0.02763 -7.07755,0.119355 -0.12789,0.127889 -0.18143,4.137799 -0.0595,4.455568 0.0554,0.144464 0.75384,0.157519 7.1783,0.134175 l 7.11688,-0.02586 z M 21.933552,242.43402 c -0.0264,-0.0694 -0.03636,-7.67477 -0.02214,-16.90077 l 0.02586,-16.77454 h 16.875287 16.875288 v 16.87529 16.87529 l -16.853149,0.0255 c -13.429555,0.0203 -16.862901,-1.6e-4 -16.901153,-0.10075 z M 50.851951,225.634 V 213.59462 H 38.812566 26.773182 l -0.02593,11.93863 c -0.01426,6.56625 -0.0043,11.99549 0.02218,12.06498 0.03827,0.10052 2.504655,0.12112 12.065312,0.10075 l 12.017202,-0.0256 z m -19.246656,7.12859 c -0.0266,-0.0696 -0.03662,-3.32283 -0.02228,-7.22934 l 0.02607,-7.10273 h 7.203481 7.203481 v 7.20348 7.20348 l -7.181198,0.0259 c -5.691531,0.0205 -7.191229,-4e-4 -7.229554,-0.10075 z M 21.932167,126.47062 c -0.02704,-0.0705 -0.03695,-1.16988 -0.02202,-2.44314 l 0.02714,-2.31503 h 2.417952 2.417951 l 0.02698,2.44314 0.02698,2.44314 h -2.422904 c -1.867376,0 -2.434177,-0.0294 -2.472067,-0.12811 z m 0.0014,-9.77008 c -0.0264,-0.0694 -0.03636,-7.67478 -0.02214,-16.900773 l 0.02586,-16.774539 H 38.812566 55.687854 V 99.900515 116.7758 l -16.853149,0.0255 c -13.429555,0.0203 -16.862901,-1.6e-4 -16.901153,-0.10074 z M 50.851951,99.900515 V 87.861131 H 38.812566 26.773182 l -0.02593,11.938636 c -0.01426,6.566253 -0.0043,11.995493 0.02218,12.064983 0.03827,0.10052 2.504655,0.12111 12.065312,0.10075 l 12.017202,-0.0256 z m -19.246656,7.128595 c -0.0266,-0.0696 -0.03662,-3.32284 -0.02228,-7.229343 l 0.02607,-7.102733 h 7.203481 7.203481 v 7.203481 7.203485 l -7.181198,0.0259 c -5.691531,0.0205 -7.191229,-4.1e-4 -7.229554,-0.10075 z m 116.061745,9.67143 c -0.0264,-0.0694 -0.0364,-7.67478 -0.0221,-16.900773 l 0.0259,-16.774539 h 16.87529 16.87529 V 99.900515 116.7758 l -16.85315,0.0255 c -13.42956,0.0203 -16.8629,-1.6e-4 -16.90115,-0.10074 z m 28.9184,-16.800025 V 87.861131 h -12.03939 -12.03938 l -0.0259,11.938636 c -0.0143,6.566253 -0.004,11.995493 0.0222,12.064983 0.0383,0.10052 2.50466,0.12111 12.06531,0.10075 l 12.01721,-0.0256 z m -19.24666,7.128595 c -0.0266,-0.0696 -0.0366,-3.32284 -0.0223,-7.229343 l 0.0261,-7.102733 h 7.20348 7.20348 v 7.203481 7.203485 l -7.1812,0.0259 c -5.69153,0.0205 -7.19122,-4.1e-4 -7.22955,-0.10075 z"
         id="path1" /></g></g></svg>
